<?xml version="1.0" encoding="UTF-8"?>
<!-- Generator: visioncortex VTracer 0.6.3 -->
<svg version="1.1" xmlns="http://www.w3.org/2000/svg" width="1280" height="1280">
<path d="M0 0 C422.4 0 844.8 0 1280 0 C1280 422.4 1280 844.8 1280 1280 C857.6 1280 435.2 1280 0 1280 C0 857.6 0 435.2 0 0 Z " fill="#000000" transform="translate(0,0)"/>
<path d="M0 0 C0.94 -0 1.87 -0 2.84 -0.01 C3.87 -0 4.91 -0 5.98 0 C7.08 -0 8.18 -0 9.31 -0 C13.04 -0.01 16.77 -0 20.5 0 C23.18 0 25.87 0 28.55 0 C34.4 -0 40.26 0 46.12 0 C54.82 0.01 63.53 0.01 72.24 0.01 C86.88 0.01 101.53 0.01 116.17 0.02 C130.68 0.02 145.19 0.03 159.69 0.03 C160.59 0.03 161.49 0.03 162.42 0.03 C167 0.03 171.57 0.03 176.15 0.03 C208.58 0.03 241.01 0.04 273.44 0.05 C304.96 0.06 336.47 0.07 367.98 0.07 C368.95 0.07 369.93 0.07 370.93 0.07 C380.68 0.07 390.43 0.07 400.17 0.07 C420.04 0.08 439.9 0.08 459.76 0.08 C460.67 0.08 461.59 0.08 462.53 0.08 C523.55 0.09 584.57 0.11 645.58 0.12 C647.47 6.5 647.86 12.23 647.82 18.85 C647.82 20.44 647.82 20.44 647.82 22.07 C647.82 25.64 647.81 29.2 647.79 32.77 C647.79 35.35 647.79 37.93 647.79 40.51 C647.78 46.12 647.77 51.73 647.76 57.35 C647.74 65.69 647.72 74.04 647.71 82.38 C647.7 96.42 647.67 110.46 647.64 124.5 C647.61 138.4 647.58 152.3 647.56 166.21 C647.56 167.5 647.56 167.5 647.56 168.83 C647.55 172.33 647.54 175.84 647.54 179.35 C647.49 212.27 647.42 245.18 647.36 278.09 C647.3 307.36 647.24 336.62 647.2 365.89 C647.19 367.77 647.19 369.65 647.19 371.53 C647.19 372.46 647.18 373.39 647.18 374.34 C647.18 379.02 647.17 383.7 647.16 388.38 C647.16 389.3 647.16 390.22 647.16 391.17 C647.12 415.61 647.07 440.04 647.03 464.48 C647.03 465.78 647.03 465.78 647.02 467.11 C647.02 470.6 647.01 474.1 647 477.59 C646.98 489.76 646.96 501.93 646.94 514.11 C646.91 529.78 646.89 545.46 646.85 561.14 C646.83 569.43 646.82 577.73 646.8 586.03 C646.8 592.21 646.78 598.39 646.76 604.57 C646.76 607.08 646.75 609.59 646.75 612.1 C646.75 615.5 646.74 618.89 646.73 622.28 C646.73 623.27 646.73 624.27 646.73 625.3 C646.73 626.19 646.72 627.09 646.72 628.01 C646.72 628.78 646.71 629.56 646.71 630.36 C646.58 632.12 646.58 632.12 645.58 633.12 C643.11 633.29 640.67 633.38 638.2 633.44 C637.42 633.46 636.63 633.48 635.83 633.5 C633.18 633.56 630.54 633.62 627.9 633.68 C626.51 633.71 626.51 633.71 625.09 633.74 C601.18 634.27 577.27 634.27 553.36 634.25 C547.48 634.25 541.6 634.26 535.72 634.26 C522.98 634.26 510.25 634.26 497.51 634.26 C486.35 634.26 475.19 634.26 464.03 634.26 C463.28 634.26 462.54 634.26 461.77 634.26 C458.74 634.26 455.7 634.26 452.67 634.26 C424.33 634.26 395.99 634.26 367.64 634.25 C342.62 634.25 317.6 634.25 292.58 634.25 C264.31 634.26 236.04 634.26 207.78 634.26 C204.74 634.26 201.71 634.26 198.68 634.26 C197.93 634.26 197.19 634.26 196.42 634.26 C185.3 634.26 174.17 634.26 163.05 634.26 C150.35 634.26 137.65 634.26 124.95 634.26 C118.51 634.25 112.06 634.25 105.61 634.26 C68.93 634.27 32.26 633.83 -4.42 633.12 C-5.58 630.79 -5.54 629.44 -5.55 626.84 C-5.55 625.93 -5.55 625.02 -5.56 624.09 C-5.56 622.58 -5.56 622.58 -5.55 621.04 C-5.56 619.97 -5.56 618.91 -5.56 617.81 C-5.57 614.19 -5.57 610.58 -5.57 606.97 C-5.58 604.37 -5.58 601.77 -5.59 599.17 C-5.6 593.49 -5.61 587.81 -5.61 582.14 C-5.62 573.7 -5.63 565.26 -5.65 556.82 C-5.67 542.63 -5.69 528.43 -5.71 514.24 C-5.72 500.18 -5.74 486.12 -5.76 472.06 C-5.76 471.19 -5.77 470.31 -5.77 469.41 C-5.77 464.98 -5.78 460.54 -5.79 456.11 C-5.84 424.68 -5.88 393.24 -5.92 361.81 C-5.96 331.27 -6 300.72 -6.04 270.18 C-6.05 269.24 -6.05 268.3 -6.05 267.33 C-6.06 257.88 -6.08 248.43 -6.09 238.98 C-6.12 219.73 -6.14 200.48 -6.17 181.23 C-6.17 180.34 -6.18 179.46 -6.18 178.54 C-6.26 119.4 -6.34 60.26 -6.42 1.12 C-4.05 -0.06 -2.64 -0 0 0 Z " fill="#000000" transform="translate(319.41621601581573,322.8758015036583)"/>
<path d="M0 0 C1.8 -0 1.8 -0 3.65 -0.01 C4.95 -0 6.26 0.01 7.6 0.01 C9 0.01 10.4 0.01 11.8 0.01 C15.59 0.01 19.38 0.02 23.17 0.04 C27.13 0.05 31.1 0.05 35.06 0.05 C42.56 0.06 50.06 0.08 57.56 0.1 C66.11 0.12 74.65 0.13 83.19 0.14 C100.76 0.16 118.32 0.2 135.89 0.24 C135.89 0.9 135.89 1.56 135.89 2.24 C136.88 2.24 137.87 2.24 138.89 2.24 C140.03 11.3 140.02 20.29 139.99 29.4 C139.98 31.05 139.98 32.69 139.98 34.34 C139.98 38.64 139.97 42.93 139.96 47.23 C139.95 51.63 139.94 56.03 139.94 60.42 C139.93 69.03 139.91 77.64 139.89 86.24 C139.23 86.24 138.57 86.24 137.89 86.24 C138.22 87.23 138.55 88.22 138.89 89.24 C138.56 89.9 138.23 90.56 137.89 91.24 C124.71 93.21 110.86 92.37 97.58 92.34 C95.27 92.34 92.96 92.33 90.65 92.33 C84.63 92.33 78.6 92.32 72.58 92.31 C66.41 92.3 60.24 92.29 54.08 92.29 C42.01 92.28 29.95 92.26 17.89 92.24 C18.88 95.71 18.88 95.71 19.89 99.24 C20.38 109.64 20.38 109.64 20.89 120.24 C68.74 119.91 116.59 119.58 165.89 119.24 C166.22 80.3 166.55 41.36 166.89 1.24 C170.09 0.17 172.35 0.12 175.72 0.12 C176.93 0.12 178.15 0.12 179.4 0.12 C180.75 0.12 182.1 0.12 183.45 0.13 C184.87 0.13 186.29 0.13 187.7 0.13 C191.56 0.13 195.41 0.13 199.27 0.14 C203.3 0.15 207.33 0.15 211.35 0.15 C218.98 0.15 226.61 0.16 234.24 0.17 C242.92 0.18 251.61 0.19 260.29 0.19 C278.16 0.2 296.02 0.22 313.89 0.24 C313.89 0.9 313.89 1.56 313.89 2.24 C314.88 2.57 315.87 2.9 316.89 3.24 C316.95 7.7 316.98 12.16 317.01 16.62 C317.03 17.89 317.05 19.16 317.06 20.47 C317.07 21.68 317.08 22.89 317.08 24.14 C317.09 25.26 317.1 26.38 317.11 27.53 C316.89 30.24 316.89 30.24 314.89 32.24 C312.81 32.49 312.81 32.49 310.21 32.48 C309.22 32.48 308.23 32.49 307.21 32.49 C305.58 32.48 305.58 32.48 303.92 32.47 C302.21 32.47 302.21 32.47 300.46 32.47 C296.67 32.47 292.89 32.45 289.1 32.44 C286.48 32.43 283.86 32.43 281.24 32.43 C275.04 32.42 268.84 32.4 262.63 32.38 C255.57 32.36 248.52 32.35 241.46 32.34 C226.93 32.32 212.41 32.29 197.89 32.24 C197.89 32.88 197.9 33.52 197.9 34.18 C197.92 37.1 197.94 40.01 197.95 42.93 C197.96 43.94 197.97 44.94 197.98 45.98 C197.98 46.96 197.98 47.93 197.99 48.94 C197.99 49.84 198 50.73 198 51.65 C197.89 54.28 197.47 56.68 196.89 59.24 C200.62 60.49 204.11 60.39 208 60.4 C208.83 60.4 209.65 60.41 210.5 60.41 C212.3 60.42 214.09 60.43 215.89 60.44 C218.72 60.45 221.56 60.47 224.39 60.49 C232.46 60.55 240.52 60.61 248.59 60.64 C253.52 60.66 258.45 60.7 263.38 60.74 C265.26 60.76 267.14 60.77 269.03 60.77 C271.65 60.77 274.28 60.8 276.91 60.82 C277.69 60.82 278.47 60.82 279.28 60.81 C281.44 60.85 281.44 60.85 284.89 61.24 C287.17 64.66 287.13 65.91 287.12 69.93 C287.12 71.04 287.11 72.15 287.11 73.29 C287.1 74.45 287.09 75.61 287.08 76.8 C287.07 77.97 287.07 79.13 287.07 80.32 C287.03 88.96 287.03 88.96 285.89 91.24 C276.62 92.7 267.2 92.37 257.85 92.34 C256.11 92.34 254.38 92.33 252.65 92.33 C248.11 92.33 243.58 92.32 239.04 92.31 C234.4 92.3 229.76 92.29 225.13 92.29 C216.05 92.28 206.97 92.26 197.89 92.24 C198.22 101.15 198.55 110.06 198.89 119.24 C246.74 119.24 294.59 119.24 343.89 119.24 C343.85 91.26 343.85 91.26 343.8 63.27 C343.77 42.57 343.91 21.92 344.89 1.24 C348.65 0.37 352.13 0.11 355.98 0.1 C357.2 0.09 358.43 0.09 359.69 0.08 C361.04 0.08 362.39 0.08 363.73 0.08 C365.16 0.07 366.59 0.07 368.01 0.06 C371.88 0.05 375.74 0.04 379.61 0.04 C382.02 0.04 384.44 0.03 386.85 0.03 C394.4 0.02 401.95 0.01 409.5 0 C418.23 -0 426.95 -0.02 435.67 -0.05 C442.41 -0.07 449.15 -0.08 455.89 -0.08 C459.92 -0.08 463.95 -0.09 467.98 -0.11 C471.76 -0.12 475.54 -0.13 479.32 -0.12 C480.72 -0.12 482.11 -0.12 483.5 -0.13 C485.39 -0.14 487.28 -0.14 489.18 -0.13 C490.24 -0.13 491.3 -0.13 492.39 -0.13 C493.63 0.05 493.63 0.05 494.89 0.24 C497.29 3.84 496.98 4.7 496.51 8.89 C495.56 19.88 495.83 30.87 495.91 41.9 C495.93 44.38 495.94 46.86 495.96 49.33 C495.99 54.65 496.02 59.96 496.06 65.27 C496.12 73.66 496.16 82.06 496.21 90.45 C496.22 93.33 496.24 96.21 496.25 99.09 C496.26 100.17 496.26 100.17 496.27 101.27 C496.31 109.43 496.36 117.58 496.4 125.74 C496.41 126.49 496.41 127.23 496.42 128 C496.49 140.1 496.57 152.2 496.65 164.3 C496.73 176.75 496.8 189.19 496.86 201.64 C496.9 209.3 496.95 216.97 497.01 224.64 C497.05 230.5 497.08 236.37 497.1 242.23 C497.11 244.64 497.13 247.05 497.15 249.45 C497.18 252.73 497.2 256.01 497.2 259.29 C497.22 260.73 497.22 260.73 497.24 262.19 C497.24 263.07 497.24 263.95 497.24 264.85 C497.25 265.99 497.25 265.99 497.25 267.14 C496.75 270.02 496.06 271.26 493.89 273.24 C491.34 273.63 489.23 273.76 486.69 273.71 C485.94 273.72 485.2 273.72 484.44 273.72 C481.93 273.73 479.42 273.7 476.92 273.68 C475.11 273.67 473.3 273.67 471.49 273.67 C466.51 273.67 461.53 273.64 456.54 273.61 C451.17 273.57 445.8 273.57 440.43 273.55 C431.11 273.53 421.79 273.49 412.48 273.45 C398.97 273.38 385.46 273.34 371.96 273.3 C350 273.23 328.05 273.15 306.09 273.06 C284.84 272.97 263.59 272.89 242.33 272.81 C241.03 272.81 239.72 272.8 238.38 272.8 C224.1 272.75 209.82 272.7 195.54 272.65 C194.28 272.65 193.02 272.64 191.72 272.64 C184.16 272.61 184.16 272.61 176.6 272.59 C161.91 272.54 147.21 272.49 132.51 272.43 C123.27 272.39 114.02 272.35 104.77 272.32 C99.46 272.3 94.14 272.28 88.82 272.25 C70.1 272.16 51.4 272.09 32.69 272.68 C31.39 272.71 30.09 272.75 28.75 272.79 C23.45 272.48 23.45 272.48 18.89 274.24 C18.78 276.36 18.75 278.47 18.74 280.59 C18.74 281.26 18.73 281.93 18.73 282.62 C18.72 284.89 18.71 287.16 18.71 289.42 C18.7 291.04 18.7 292.66 18.69 294.27 C18.67 298.68 18.66 303.09 18.65 307.5 C18.65 310.25 18.64 313 18.64 315.75 C18.62 324.36 18.6 332.96 18.6 341.56 C18.59 351.51 18.56 361.45 18.52 371.39 C18.49 379.07 18.47 386.74 18.47 394.42 C18.47 399.01 18.46 403.6 18.43 408.19 C18.41 412.5 18.41 416.82 18.42 421.14 C18.42 422.72 18.41 424.31 18.4 425.89 C18.38 428.06 18.39 430.22 18.4 432.38 C18.4 433.59 18.4 434.8 18.39 436.05 C19.16 440.98 21.7 443.31 25.51 446.3 C27.89 448.24 27.89 448.24 28.76 450.18 C30.3 452.99 32.46 454.18 35.08 455.96 C39.36 459 42.8 463.02 45.89 467.24 C45.89 467.9 45.89 468.56 45.89 469.24 C46.65 469.51 47.41 469.78 48.2 470.05 C50.78 471.19 52.16 472.05 53.89 474.24 C53.89 474.9 53.89 475.56 53.89 476.24 C54.55 476.24 55.21 476.24 55.89 476.24 C56.67 477.04 57.46 477.85 58.26 478.68 C60.7 481.06 61.61 481.88 64.89 482.24 C65.4 481.54 65.92 480.84 66.45 480.12 C73.51 471.79 73.51 471.79 78.05 470.74 C78.66 470.58 79.26 470.41 79.89 470.24 C80.18 469.33 80.47 468.43 80.76 467.49 C82.21 463.3 84.43 461.94 87.89 459.24 C88.57 458.33 89.25 457.43 89.95 456.49 C92.22 453.86 93.49 453.52 96.89 453.24 C97.05 452.39 97.22 451.55 97.39 450.68 C99.44 445.97 102.72 443.17 106.89 440.24 C107.55 440.24 108.21 440.24 108.89 440.24 C108.56 439.38 108.24 438.51 107.91 437.62 C106.9 434.28 106.62 431.66 106.58 428.18 C106.57 427 106.55 425.83 106.53 424.62 C106.53 423.36 106.52 422.11 106.51 420.81 C106.48 418.82 106.46 416.82 106.43 414.83 C106.4 412.05 106.37 409.26 106.35 406.48 C106.3 401.62 106.24 396.76 106.18 391.89 C106.15 389.31 106.12 386.73 106.1 384.14 C106.03 378.09 105.81 372.23 104.89 366.24 C109.37 362.69 112.51 362.12 118.18 362.11 C118.83 362.11 119.47 362.11 120.13 362.11 C122.31 362.11 124.48 362.11 126.65 362.11 C128.22 362.11 129.79 362.11 131.36 362.11 C135.68 362.1 140 362.11 144.32 362.11 C148.97 362.11 153.63 362.11 158.28 362.11 C167.4 362.1 176.53 362.1 185.65 362.11 C193.06 362.11 200.47 362.11 207.88 362.11 C209.46 362.11 209.46 362.11 211.08 362.11 C213.22 362.11 215.36 362.11 217.5 362.11 C237.58 362.1 257.66 362.11 277.74 362.11 C294.98 362.12 312.23 362.11 329.47 362.11 C349.48 362.1 369.49 362.1 389.49 362.11 C391.63 362.11 393.76 362.11 395.89 362.11 C397.46 362.11 397.46 362.11 399.07 362.11 C406.48 362.11 413.88 362.11 421.29 362.1 C430.31 362.1 439.33 362.1 448.35 362.11 C452.96 362.11 457.56 362.11 462.17 362.11 C466.38 362.1 470.59 362.11 474.8 362.11 C476.33 362.11 477.86 362.11 479.39 362.11 C481.46 362.11 483.52 362.11 485.59 362.11 C486.74 362.11 487.9 362.11 489.08 362.12 C491.89 362.24 491.89 362.24 494.89 363.24 C496.24 365.94 496.01 368.03 496.01 371.06 C496.01 372.92 496.01 372.92 496.01 374.82 C496.01 376.2 496 377.58 496 378.96 C496 380.41 496 381.86 496 383.31 C496 387.25 496 391.19 495.99 395.13 C495.98 399.24 495.98 403.36 495.98 407.47 C495.98 415.27 495.97 423.06 495.96 430.86 C495.95 439.73 495.94 448.6 495.94 457.47 C495.93 475.73 495.91 493.99 495.89 512.24 C492.67 513.95 490.52 514.5 486.86 514.51 C485.42 514.51 485.42 514.51 483.96 514.51 C482.97 514.51 481.97 514.5 480.95 514.49 C479.96 514.5 478.97 514.51 477.95 514.51 C476.99 514.51 476.04 514.51 475.05 514.51 C473.74 514.5 473.74 514.5 472.41 514.5 C469.55 514.21 467.44 513.57 464.89 512.24 C463.86 509.16 463.77 507.07 463.77 503.85 C463.77 502.75 463.77 501.65 463.77 500.51 C463.78 499.33 463.78 498.14 463.79 496.92 C463.79 495.09 463.79 495.09 463.79 493.23 C463.8 489.34 463.81 485.45 463.83 481.55 C463.83 478.92 463.83 476.28 463.84 473.64 C463.85 467.18 463.87 460.71 463.89 454.24 C457.24 454.1 450.59 453.95 443.94 453.81 C441.69 453.77 439.43 453.72 437.18 453.67 C412.31 452.94 412.31 452.94 387.45 453.68 C386.75 453.72 386.04 453.76 385.32 453.8 C382.3 453.98 379.77 454.28 376.89 455.24 C376.8 463.46 376.9 471.63 377.25 479.84 C377.31 481.5 377.37 483.16 377.44 484.82 C377.54 487.37 377.64 489.91 377.76 492.45 C377.88 494.96 377.97 497.46 378.06 499.97 C378.12 501.1 378.12 501.1 378.19 502.27 C378.3 506.01 378.04 508.01 376 511.2 C372.5 514.58 370.37 514.36 365.59 514.32 C364.93 514.31 364.28 514.31 363.6 514.3 C361.4 514.29 359.2 514.27 356.99 514.25 C355.42 514.23 353.84 514.22 352.26 514.21 C348.85 514.19 345.44 514.16 342.03 514.13 C336.61 514.08 331.18 514.04 325.75 514.01 C312.23 513.91 298.71 513.8 285.19 513.69 C274.75 513.61 264.3 513.53 253.85 513.46 C249.36 513.42 244.87 513.39 240.38 513.35 C235.31 513.31 230.25 513.27 225.18 513.23 C223.97 513.23 223.97 513.23 222.74 513.22 C213.66 513.16 204.59 513.24 195.51 513.56 C194.67 513.59 193.83 513.62 192.97 513.65 C188.95 513.79 184.94 513.95 180.93 514.14 C179.5 514.2 178.08 514.25 176.66 514.31 C174.8 514.4 174.8 514.4 172.9 514.49 C169.89 514.24 169.89 514.24 167.99 512.91 C166.3 510.36 166.5 508.18 166.49 505.15 C166.49 503.95 166.48 502.76 166.48 501.53 C166.49 499.65 166.49 499.65 166.51 497.74 C166.5 496.49 166.49 495.24 166.48 493.96 C166.48 492.76 166.49 491.57 166.49 490.33 C166.49 489.24 166.5 488.14 166.5 487.01 C166.89 484.24 166.89 484.24 168.08 482.59 C170.54 480.75 172.13 480.88 175.19 480.9 C176.28 480.9 177.38 480.9 178.51 480.9 C179.66 480.92 180.81 480.93 181.99 480.95 C183.58 480.95 183.58 480.95 185.2 480.96 C189.16 480.97 193.12 481.01 197.08 481.05 C210.35 481.15 210.35 481.15 223.89 481.24 C223.89 453.85 223.89 426.46 223.89 398.24 C222.24 397.91 220.59 397.58 218.89 397.24 C218.89 396.91 218.89 396.58 218.89 396.24 C193.15 395.91 167.41 395.58 140.89 395.24 C141.16 413.4 141.16 413.4 141.52 431.56 C141.54 433.84 141.56 436.12 141.57 438.4 C141.61 439.58 141.64 440.76 141.68 441.98 C141.69 450.17 141.69 450.17 139.35 453.3 C137.6 454.8 135.84 456.02 133.89 457.24 C132.11 459.09 132.11 459.09 130.76 460.8 C127.44 464.79 124.25 468.38 119.83 471.18 C116.52 473.5 114.99 475.83 112.89 479.24 C111.26 481.12 111.26 481.12 109.89 482.24 C109.23 482.24 108.57 482.24 107.89 482.24 C107.64 482.83 107.38 483.42 107.13 484.03 C105.73 486.52 104.28 487.82 102.08 489.62 C98.58 492.56 95.81 495.72 92.89 499.24 C87.3 504.56 87.3 504.56 83.78 506.26 C81.64 507.18 81.64 507.18 80.14 509.74 C77.07 513.15 74.29 513.79 69.89 514.24 C67.15 514.37 64.44 514.46 61.7 514.49 C61.01 514.5 60.32 514.51 59.61 514.52 C51.71 514.47 47.76 511.63 42.08 506.62 C41.46 506.08 40.84 505.54 40.2 504.99 C35.57 500.92 31.15 496.69 26.89 492.24 C26 491.35 25.11 490.47 24.2 489.55 C23.44 488.79 22.67 488.03 21.89 487.24 C20.96 486.35 20.03 485.47 19.08 484.55 C16.89 482.24 16.89 482.24 16.89 480.24 C16.29 479.98 15.68 479.71 15.06 479.44 C12.77 478.17 11.68 477.04 10.08 474.99 C7.41 471.72 4.51 469.11 1.21 466.5 C0.77 466.09 0.34 465.67 -0.11 465.24 C-0.11 464.58 -0.11 463.92 -0.11 463.24 C-0.71 462.96 -1.3 462.68 -1.91 462.4 C-5.84 460.33 -8.15 458.28 -10.11 454.24 C-11.09 448.25 -11.11 442.3 -11.11 436.24 C-11.13 434.22 -11.14 432.2 -11.16 430.17 C-11.18 424.86 -11.16 419.55 -11.11 414.24 C-11.77 414.24 -12.43 414.24 -13.11 414.24 C-13.1 413.18 -13.09 412.11 -13.07 411.02 C-12.91 397.3 -12.76 383.58 -12.61 369.87 C-12.6 368.76 -12.59 367.66 -12.58 366.53 C-12.24 335.39 -12.02 304.26 -12.05 273.12 C-12.05 272.31 -12.05 271.51 -12.05 270.69 C-12.06 261.21 -12.08 251.72 -12.11 242.24 C-8.94 240.85 -6.41 239.99 -2.94 240 C-2.15 239.99 -1.36 239.99 -0.55 239.99 C0.71 240 0.71 240 1.99 240.01 C2.86 240.01 3.73 240.01 4.63 240.01 C6.46 240.01 8.3 240.02 10.13 240.03 C12.94 240.05 15.75 240.06 18.56 240.05 C20.35 240.06 22.14 240.07 23.92 240.07 C24.76 240.07 25.6 240.07 26.46 240.08 C27.25 240.08 28.03 240.09 28.84 240.1 C29.87 240.1 29.87 240.1 30.92 240.11 C32.89 240.24 32.89 240.24 34.56 240.74 C37.75 241.43 40.79 241.36 44.05 241.36 C44.77 241.36 45.5 241.37 46.25 241.37 C48.69 241.37 51.14 241.37 53.58 241.36 C55.34 241.36 57.11 241.36 58.87 241.36 C63.73 241.37 68.59 241.36 73.45 241.36 C78.69 241.35 83.92 241.35 89.16 241.35 C98.24 241.36 107.31 241.35 116.39 241.35 C129.51 241.34 142.63 241.34 155.76 241.33 C177.05 241.33 198.33 241.33 219.62 241.32 C240.31 241.31 260.99 241.3 281.67 241.3 C282.95 241.3 284.22 241.29 285.54 241.29 C291.93 241.29 298.32 241.29 304.71 241.29 C357.77 241.28 410.83 241.26 463.89 241.24 C463.86 240.57 463.83 239.9 463.8 239.21 C463.66 236.1 463.53 233 463.4 229.9 C463.35 228.85 463.3 227.79 463.25 226.7 C462.86 217.45 462.73 208.22 462.76 198.97 C462.76 196.44 462.76 193.9 462.75 191.37 C462.75 181.79 462.98 172.24 463.39 162.67 C464.01 147.41 464.04 132.17 464.02 116.91 C464.01 113 464.02 109.09 464.02 105.17 C464.06 83.53 464.06 83.53 463.1 61.9 C462.88 58.14 462.85 54.45 462.89 50.68 C462.93 45.17 462.85 39.68 461.89 34.24 C460.12 32.48 457.79 33.12 455.44 33.12 C454.65 33.12 453.87 33.12 453.06 33.13 C452.23 33.13 451.4 33.13 450.54 33.13 C447.83 33.13 445.12 33.13 442.41 33.14 C440.75 33.14 439.08 33.15 437.41 33.15 C431.22 33.15 425.02 33.17 418.83 33.18 C404.99 33.2 391.15 33.22 376.89 33.24 C376.89 71.85 376.89 110.46 376.89 150.24 C374.09 151.64 371.79 151.37 368.65 151.37 C367.68 151.38 367.68 151.38 366.68 151.38 C364.49 151.38 362.29 151.38 360.09 151.38 C358.51 151.38 356.92 151.39 355.34 151.39 C350.97 151.4 346.6 151.4 342.23 151.4 C337.53 151.4 332.83 151.41 328.12 151.42 C317.83 151.43 307.54 151.44 297.24 151.44 C290.82 151.44 284.4 151.45 277.98 151.45 C260.21 151.46 242.44 151.47 224.68 151.48 C222.97 151.48 222.97 151.48 221.23 151.48 C220.09 151.48 218.95 151.48 217.77 151.48 C215.46 151.48 213.15 151.48 210.84 151.48 C209.12 151.48 209.12 151.48 207.36 151.48 C188.78 151.49 170.19 151.5 151.6 151.53 C132.53 151.55 113.46 151.56 94.4 151.56 C83.68 151.56 72.97 151.57 62.26 151.59 C53.14 151.6 44.02 151.61 34.9 151.6 C30.24 151.6 25.59 151.6 20.93 151.61 C16.67 151.62 12.41 151.62 8.16 151.61 C6.61 151.61 5.07 151.61 3.52 151.62 C1.43 151.63 -0.66 151.62 -2.75 151.61 C-4.5 151.61 -4.5 151.61 -6.28 151.61 C-9.11 151.24 -9.11 151.24 -10.98 149.91 C-12.85 147.15 -12.52 144.46 -12.56 141.17 C-12.57 140.46 -12.58 139.74 -12.6 139 C-12.63 136.63 -12.65 134.26 -12.66 131.89 C-12.68 130.24 -12.7 128.59 -12.72 126.93 C-12.76 123.46 -12.8 119.99 -12.82 116.52 C-12.85 112.09 -12.9 107.67 -12.96 103.24 C-13 99.82 -13.04 96.41 -13.07 92.99 C-13.09 91.36 -13.11 89.73 -13.12 88.1 C-13.35 66.86 -13.35 66.86 -12.11 63.24 C-9.12 61.35 -6.77 60.98 -3.27 60.96 C-1.81 60.95 -1.81 60.95 -0.32 60.93 C0.74 60.93 1.81 60.92 2.9 60.92 C4.02 60.91 5.14 60.9 6.3 60.89 C10.01 60.86 13.72 60.84 17.43 60.83 C20.01 60.81 22.58 60.79 25.15 60.77 C31.23 60.72 37.31 60.68 43.39 60.65 C50.32 60.61 57.24 60.56 64.17 60.51 C78.41 60.41 92.65 60.32 106.89 60.24 C106.61 59.1 106.61 59.1 106.33 57.93 C105.89 55.24 105.89 55.24 106.89 52.24 C106.23 51.91 105.57 51.58 104.89 51.24 C105.22 50.91 105.55 50.58 105.89 50.24 C105.96 47.38 105.98 44.54 105.95 41.68 C105.95 40.87 105.94 40.07 105.94 39.23 C105.92 37.24 105.91 35.24 105.89 33.24 C105.3 33.24 104.71 33.24 104.1 33.23 C89.75 33.17 75.41 33.1 61.06 33 C54.12 32.96 47.19 32.92 40.25 32.89 C33.56 32.87 26.86 32.83 20.17 32.78 C17.62 32.76 15.06 32.75 12.5 32.74 C8.93 32.73 5.36 32.71 1.78 32.67 C0.72 32.67 -0.34 32.68 -1.44 32.68 C-2.9 32.66 -2.9 32.66 -4.39 32.64 C-5.23 32.63 -6.08 32.63 -6.95 32.63 C-9.62 32.15 -10.5 31.39 -12.11 29.24 C-13.79 20.35 -13.08 11.18 -12.11 2.24 C-7.92 0.66 -4.47 -0.01 0 0 Z " fill="#F9F9F9" transform="translate(397.1123962402344,381.7594909667969)"/>
<path d="M0 0 C0.94 -0 1.87 -0 2.84 -0.01 C3.87 -0 4.91 -0 5.98 0 C7.08 -0 8.18 -0 9.31 -0 C13.04 -0.01 16.77 -0 20.5 0 C23.18 0 25.87 0 28.55 0 C34.4 -0 40.26 0 46.12 0 C54.82 0.01 63.53 0.01 72.24 0.01 C86.88 0.01 101.53 0.01 116.17 0.02 C130.68 0.02 145.19 0.03 159.69 0.03 C160.59 0.03 161.49 0.03 162.42 0.03 C167 0.03 171.57 0.03 176.15 0.03 C208.58 0.03 241.01 0.04 273.44 0.05 C304.96 0.06 336.47 0.07 367.98 0.07 C368.95 0.07 369.93 0.07 370.93 0.07 C380.68 0.07 390.43 0.07 400.17 0.07 C420.04 0.08 439.9 0.08 459.76 0.08 C460.67 0.08 461.59 0.08 462.53 0.08 C523.55 0.09 584.57 0.11 645.58 0.12 C647.47 6.5 647.86 12.23 647.82 18.85 C647.82 20.44 647.82 20.44 647.82 22.07 C647.82 25.64 647.81 29.2 647.79 32.77 C647.79 35.35 647.79 37.93 647.79 40.51 C647.78 46.12 647.77 51.73 647.76 57.35 C647.74 65.69 647.72 74.04 647.71 82.38 C647.7 96.42 647.67 110.46 647.64 124.5 C647.61 138.4 647.58 152.3 647.56 166.21 C647.56 167.5 647.56 167.5 647.56 168.83 C647.55 172.33 647.54 175.84 647.54 179.35 C647.49 212.27 647.42 245.18 647.36 278.09 C647.3 307.36 647.24 336.62 647.2 365.89 C647.19 367.77 647.19 369.65 647.19 371.53 C647.19 372.46 647.18 373.39 647.18 374.34 C647.18 379.02 647.17 383.7 647.16 388.38 C647.16 389.3 647.16 390.22 647.16 391.17 C647.12 415.61 647.07 440.04 647.03 464.48 C647.03 465.78 647.03 465.78 647.02 467.11 C647.02 470.6 647.01 474.1 647 477.59 C646.98 489.76 646.96 501.93 646.94 514.11 C646.91 529.78 646.89 545.46 646.85 561.14 C646.83 569.43 646.82 577.73 646.8 586.03 C646.8 592.21 646.78 598.39 646.76 604.57 C646.76 607.08 646.75 609.59 646.75 612.1 C646.75 615.5 646.74 618.89 646.73 622.28 C646.73 623.27 646.73 624.27 646.73 625.3 C646.73 626.19 646.72 627.09 646.72 628.01 C646.72 628.78 646.71 629.56 646.71 630.36 C646.58 632.12 646.58 632.12 645.58 633.12 C643.11 633.29 640.67 633.38 638.2 633.44 C637.42 633.46 636.63 633.48 635.83 633.5 C633.18 633.56 630.54 633.62 627.9 633.68 C626.51 633.71 626.51 633.71 625.09 633.74 C601.18 634.27 577.27 634.27 553.36 634.25 C547.48 634.25 541.6 634.26 535.72 634.26 C522.98 634.26 510.25 634.26 497.51 634.26 C486.35 634.26 475.19 634.26 464.03 634.26 C463.28 634.26 462.54 634.26 461.77 634.26 C458.74 634.26 455.7 634.26 452.67 634.26 C424.33 634.26 395.99 634.26 367.64 634.25 C342.62 634.25 317.6 634.25 292.58 634.25 C264.31 634.26 236.04 634.26 207.78 634.26 C204.74 634.26 201.71 634.26 198.68 634.26 C197.93 634.26 197.19 634.26 196.42 634.26 C185.3 634.26 174.17 634.26 163.05 634.26 C150.35 634.26 137.65 634.26 124.95 634.26 C118.51 634.25 112.06 634.25 105.61 634.26 C68.93 634.27 32.26 633.83 -4.42 633.12 C-5.58 630.79 -5.54 629.44 -5.55 626.84 C-5.55 625.93 -5.55 625.02 -5.56 624.09 C-5.56 622.58 -5.56 622.58 -5.55 621.04 C-5.56 619.97 -5.56 618.91 -5.56 617.81 C-5.57 614.19 -5.57 610.58 -5.57 606.97 C-5.58 604.37 -5.58 601.77 -5.59 599.17 C-5.6 593.49 -5.61 587.81 -5.61 582.14 C-5.62 573.7 -5.63 565.26 -5.65 556.82 C-5.67 542.63 -5.69 528.43 -5.71 514.24 C-5.72 500.18 -5.74 486.12 -5.76 472.06 C-5.76 471.19 -5.77 470.31 -5.77 469.41 C-5.77 464.98 -5.78 460.54 -5.79 456.11 C-5.84 424.68 -5.88 393.24 -5.92 361.81 C-5.96 331.27 -6 300.72 -6.04 270.18 C-6.05 269.24 -6.05 268.3 -6.05 267.33 C-6.06 257.88 -6.08 248.43 -6.09 238.98 C-6.12 219.73 -6.14 200.48 -6.17 181.23 C-6.17 180.34 -6.18 179.46 -6.18 178.54 C-6.26 119.4 -6.34 60.26 -6.42 1.12 C-4.05 -0.06 -2.64 -0 0 0 Z M13.58 19.12 C13.48 22.26 13.45 25.38 13.46 28.52 C13.46 29.53 13.46 30.53 13.46 31.57 C13.45 34.98 13.46 38.39 13.46 41.79 C13.46 44.25 13.46 46.7 13.46 49.15 C13.46 54.5 13.46 59.85 13.46 65.2 C13.47 73.16 13.47 81.12 13.47 89.08 C13.47 102.47 13.47 115.85 13.48 129.24 C13.48 142.5 13.49 155.76 13.49 169.02 C13.49 169.84 13.49 170.66 13.49 171.51 C13.49 175.69 13.49 179.87 13.49 184.05 C13.49 213.7 13.5 243.34 13.51 272.98 C13.52 301.79 13.52 330.59 13.53 359.39 C13.53 360.28 13.53 361.17 13.53 362.08 C13.53 370.99 13.53 379.91 13.53 388.82 C13.54 406.97 13.54 425.12 13.54 443.28 C13.54 444.11 13.54 444.95 13.54 445.81 C13.55 501.58 13.57 557.35 13.58 613.12 C14.24 613.12 14.9 613.12 15.58 613.12 C15.58 613.78 15.58 614.44 15.58 615.12 C217.21 615.12 418.84 615.12 626.58 615.12 C626.63 516.99 626.67 418.86 626.71 317.75 C626.74 271.18 626.74 271.18 626.76 223.67 C626.77 195.97 626.77 195.97 626.77 168.27 C626.78 155.06 626.79 141.85 626.8 128.65 C626.81 115.19 626.81 101.74 626.81 88.29 C626.81 80.28 626.81 72.27 626.83 64.26 C626.83 58.37 626.83 52.47 626.83 46.58 C626.82 44.18 626.83 41.79 626.83 39.39 C626.84 36.15 626.84 32.9 626.83 29.66 C626.84 28.71 626.84 27.76 626.85 26.79 C626.84 25.5 626.84 25.5 626.83 24.19 C626.83 23.45 626.83 22.7 626.83 21.94 C626.74 19.87 626.74 19.87 624.58 18.12 C622.66 17.82 622.66 17.82 620.43 17.87 C619.55 17.87 618.67 17.87 617.76 17.86 C616.79 17.87 615.82 17.87 614.81 17.88 C613.78 17.87 612.75 17.87 611.69 17.87 C608.19 17.86 604.69 17.87 601.19 17.88 C598.67 17.88 596.16 17.87 593.64 17.87 C588.15 17.86 582.65 17.87 577.16 17.87 C568.99 17.88 560.82 17.88 552.65 17.88 C538.91 17.87 525.17 17.87 511.43 17.88 C497.82 17.89 484.21 17.9 470.6 17.9 C469.33 17.9 469.33 17.9 468.04 17.9 C464.61 17.9 461.18 17.9 457.75 17.9 C425.53 17.89 393.32 17.9 361.11 17.92 C332.46 17.93 303.82 17.94 275.17 17.94 C273.33 17.94 271.49 17.94 269.65 17.94 C268.74 17.94 267.83 17.94 266.9 17.94 C262.32 17.94 257.74 17.94 253.16 17.94 C251.81 17.94 251.81 17.94 250.43 17.94 C226.52 17.94 202.61 17.94 178.71 17.95 C177.86 17.95 177.01 17.95 176.13 17.95 C172.71 17.95 169.29 17.95 165.88 17.95 C153.96 17.96 142.05 17.96 130.14 17.96 C114.79 17.96 99.44 17.96 84.09 17.97 C75.97 17.98 67.84 17.98 59.72 17.98 C53.67 17.98 47.62 17.98 41.57 17.99 C39.11 17.99 36.65 17.99 34.19 17.99 C30.87 17.99 27.55 17.99 24.23 18 C22.76 17.99 22.76 17.99 21.27 17.99 C19.96 17.99 19.96 17.99 18.62 18 C17.86 18 17.1 18 16.31 18 C14.55 17.94 14.55 17.94 13.58 19.12 Z " fill="#F5F5F5" transform="translate(319.41621601581573,322.8758015036583)"/>
<path d="M0 0 C0.13 29.02 -0.12 57.99 -1 87 C-17.6 87.35 -34.2 87.67 -50.81 87.95 C-52.81 87.98 -54.82 88.01 -56.82 88.05 C-61.92 88.14 -67.02 88.21 -72.12 88.25 C-73.92 88.28 -73.92 88.28 -75.76 88.31 C-76.83 88.32 -77.9 88.32 -79.01 88.33 C-79.91 88.34 -80.82 88.35 -81.75 88.36 C-84 88 -84 88 -85.62 86.97 C-87.75 83.93 -87.42 80.76 -87.39 77.18 C-87.39 76.38 -87.4 75.59 -87.4 74.77 C-87.42 72.14 -87.41 69.51 -87.4 66.88 C-87.4 65.05 -87.4 63.22 -87.41 61.39 C-87.41 57.56 -87.41 53.73 -87.39 49.9 C-87.37 44.99 -87.38 40.08 -87.4 35.17 C-87.41 31.39 -87.41 27.62 -87.4 23.85 C-87.4 22.04 -87.4 20.22 -87.41 18.41 C-87.42 15.88 -87.4 13.35 -87.39 10.82 C-87.4 9.69 -87.4 9.69 -87.41 8.54 C-87.37 5.76 -87.28 3.52 -85.95 1.04 C-82.91 -0.58 -79.85 -0.45 -76.49 -0.45 C-75.72 -0.46 -74.96 -0.47 -74.17 -0.48 C-71.65 -0.52 -69.13 -0.53 -66.6 -0.55 C-64.85 -0.57 -63.09 -0.59 -61.34 -0.61 C-57.66 -0.65 -53.98 -0.68 -50.3 -0.71 C-45.58 -0.74 -40.87 -0.79 -36.16 -0.85 C-32.53 -0.89 -28.91 -0.93 -25.28 -0.96 C-23.54 -0.98 -21.8 -0.99 -20.07 -1.01 C-17.64 -1.04 -15.2 -1.05 -12.77 -1.07 C-12.06 -1.08 -11.34 -1.09 -10.6 -1.09 C-6.94 -1.11 -3.56 -0.88 0 0 Z " fill="#000000" transform="translate(742,777)"/>
<path d="M0 0 C0.33 0.66 0.66 1.32 1 2 C2.58 2 2.58 2 4.18 1.99 C14.06 1.97 23.93 1.96 33.8 1.95 C38.88 1.94 43.96 1.94 49.04 1.92 C53.93 1.91 58.83 1.91 63.72 1.91 C65.59 1.9 67.47 1.9 69.34 1.89 C71.95 1.89 74.56 1.89 77.18 1.89 C77.96 1.88 78.74 1.88 79.54 1.88 C84.89 1.89 84.89 1.89 86 3 C86.16 5 86.25 7 86.32 9 C86.36 10.22 86.4 11.43 86.44 12.69 C86.48 13.96 86.52 15.24 86.56 16.56 C86.61 17.85 86.65 19.13 86.69 20.45 C86.8 23.63 86.9 26.82 87 30 C78.27 30.88 69.64 31.16 60.88 31.12 C59.88 31.12 59.88 31.12 58.87 31.12 C45.95 31.09 33.04 30.85 20.12 30.56 C19.18 30.54 18.24 30.52 17.28 30.5 C14.6 30.45 11.93 30.38 9.26 30.32 C8.05 30.29 8.05 30.29 6.81 30.27 C1.23 30.12 1.23 30.12 -1 29 C-1.23 24.92 -1.43 20.83 -1.62 16.75 C-1.69 15.59 -1.75 14.43 -1.82 13.24 C-1.9 11.57 -1.9 11.57 -1.98 9.86 C-2.03 8.83 -2.08 7.81 -2.14 6.75 C-2 3.93 -1.46 2.38 0 0 Z " fill="#000000" transform="translate(775,774)"/>
<path d="M0 0 C0.64 -0 1.29 -0 1.95 -0 C4.13 -0.01 6.3 -0 8.47 -0 C10.04 -0 11.61 -0 13.18 -0.01 C17.5 -0.01 21.82 -0.01 26.14 -0 C30.79 -0 35.44 -0.01 40.1 -0.01 C49.22 -0.01 58.34 -0.01 67.47 -0.01 C74.88 -0.01 82.29 -0.01 89.7 -0.01 C91.28 -0.01 91.28 -0.01 92.89 -0.01 C95.03 -0.01 97.17 -0.01 99.31 -0.01 C119.39 -0.01 139.47 -0.01 159.56 -0 C176.8 0 194.05 0 211.29 -0 C231.3 -0.01 251.3 -0.01 271.31 -0.01 C273.44 -0.01 275.58 -0.01 277.71 -0.01 C279.28 -0.01 279.28 -0.01 280.89 -0.01 C288.29 -0.01 295.7 -0.01 303.1 -0.01 C312.13 -0.01 321.15 -0.01 330.17 -0.01 C334.77 -0 339.38 -0 343.98 -0.01 C348.2 -0.01 352.41 -0.01 356.62 -0 C358.15 -0 359.68 -0 361.2 -0 C363.27 -0.01 365.34 -0 367.41 0 C368.56 0 369.71 0 370.9 0 C373.7 0.13 373.7 0.13 376.7 1.13 C378.06 3.83 377.83 5.92 377.82 8.95 C377.83 10.81 377.83 10.81 377.83 12.7 C377.83 14.08 377.82 15.47 377.82 16.85 C377.82 18.3 377.82 19.74 377.82 21.19 C377.82 25.13 377.81 29.07 377.81 33.01 C377.8 37.13 377.8 41.24 377.8 45.36 C377.79 53.15 377.79 60.95 377.78 68.74 C377.77 77.61 377.76 86.49 377.75 95.36 C377.74 113.62 377.73 131.87 377.7 150.13 C374.49 151.84 372.34 152.38 368.68 152.39 C367.24 152.4 367.24 152.4 365.78 152.4 C364.29 152.39 364.29 152.39 362.77 152.38 C361.78 152.38 360.79 152.39 359.77 152.4 C358.81 152.4 357.85 152.39 356.86 152.39 C355.99 152.39 355.12 152.39 354.23 152.38 C351.37 152.09 349.26 151.46 346.7 150.13 C345.68 147.05 345.58 144.96 345.59 141.74 C345.59 140.64 345.59 139.53 345.59 138.4 C345.6 137.21 345.6 136.03 345.61 134.8 C345.61 132.98 345.61 132.98 345.61 131.12 C345.62 127.22 345.63 123.33 345.64 119.44 C345.65 116.8 345.65 114.17 345.66 111.53 C345.67 105.06 345.69 98.59 345.7 92.13 C321.45 91.63 321.45 91.63 296.7 91.13 C296.7 90.8 296.7 90.47 296.7 90.13 C303.91 90.02 311.12 89.95 318.33 89.91 C320.78 89.89 323.24 89.86 325.69 89.82 C329.21 89.78 332.73 89.75 336.26 89.74 C337.91 89.7 337.91 89.7 339.59 89.67 C340.61 89.67 341.63 89.67 342.68 89.67 C344.03 89.66 344.03 89.66 345.41 89.64 C347.7 90.13 347.7 90.13 349.49 91.84 C350.9 94.49 351.09 96.15 351.12 99.14 C351.15 100.63 351.15 100.63 351.17 102.15 C351.18 103.75 351.18 103.75 351.18 105.38 C351.2 107.03 351.2 107.03 351.23 108.72 C351.28 112.23 351.3 115.74 351.33 119.25 C351.37 122.77 351.41 126.29 351.45 129.81 C351.48 132 351.5 134.19 351.52 136.38 C351.53 137.86 351.53 137.86 351.55 139.37 C351.56 140.68 351.56 140.68 351.57 142.01 C351.57 144.18 351.57 144.18 352.7 146.13 C360.08 148.07 367.69 147.93 374.7 145.13 C375.03 98.27 375.36 51.41 375.7 3.13 C249.31 3.13 122.92 3.13 -7.3 3.13 C-7.3 27.55 -7.3 51.97 -7.3 77.13 C-7.63 75.81 -7.96 74.49 -8.3 73.13 C-9.29 72.8 -10.28 72.47 -11.3 72.13 C-11.31 71.02 -11.31 71.02 -11.33 69.9 C-11.42 62.96 -11.53 56.01 -11.63 49.07 C-11.69 45.5 -11.74 41.93 -11.79 38.36 C-11.84 34.91 -11.89 31.47 -11.95 28.02 C-11.98 26.07 -12 24.13 -12.03 22.18 C-12.13 16.08 -12.37 10.16 -13.3 4.13 C-8.81 0.57 -5.67 0 0 0 Z " fill="#C6C7C7" transform="translate(515.2953643798828,743.8741588592529)"/>
<path d="M0 0 C5.29 0.02 10.58 0.03 15.87 0.04 C25 0.06 34.13 0.08 43.26 0.11 C56.46 0.15 69.66 0.18 82.86 0.22 C104.28 0.27 125.71 0.32 147.13 0.38 C167.92 0.44 188.71 0.5 209.5 0.55 C210.79 0.55 212.07 0.56 213.39 0.56 C219.84 0.58 226.29 0.59 232.74 0.61 C286.09 0.74 339.44 0.88 392.79 1.03 C392.79 2.02 392.79 3.01 392.79 4.03 C240.66 4.36 88.53 4.69 -68.21 5.03 C-68.21 59.81 -68.21 114.59 -68.21 171.03 C-69.86 170.04 -71.51 169.05 -73.21 168.03 C-73.83 165.09 -73.83 165.09 -73.82 161.42 C-73.83 160.75 -73.83 160.07 -73.84 159.37 C-73.85 157.11 -73.83 154.84 -73.8 152.58 C-73.81 150.95 -73.81 149.33 -73.82 147.71 C-73.83 143.3 -73.81 138.89 -73.78 134.47 C-73.75 129.86 -73.76 125.25 -73.76 120.64 C-73.75 112.9 -73.73 105.16 -73.69 97.42 C-73.65 88.46 -73.63 79.5 -73.63 70.54 C-73.63 61.01 -73.61 51.49 -73.58 41.96 C-73.58 39.21 -73.57 36.46 -73.57 33.71 C-73.56 29.39 -73.55 25.08 -73.52 20.76 C-73.52 19.17 -73.51 17.58 -73.51 16 C-73.51 13.84 -73.5 11.68 -73.48 9.52 C-73.47 8.3 -73.47 7.09 -73.47 5.85 C-73.21 3.03 -73.21 3.03 -71.21 1.03 C-68.82 0.71 -68.82 0.71 -65.75 0.62 C-64 0.56 -64 0.56 -62.21 0.5 C-60.92 0.47 -59.62 0.44 -58.28 0.41 C-56.9 0.37 -55.51 0.33 -54.12 0.29 C-36.08 -0.17 -18.04 -0.06 0 0 Z " fill="#212121" transform="translate(488.2051488161087,652.9684773683548)"/>
<path d="M0 0 C0.79 -0 1.58 -0.01 2.39 -0.01 C3.22 -0 4.06 0.01 4.92 0.01 C5.79 0.01 6.66 0.01 7.56 0.01 C9.4 0.02 11.23 0.02 13.07 0.04 C15.88 0.06 18.69 0.06 21.5 0.06 C23.28 0.06 25.07 0.07 26.86 0.07 C27.7 0.08 28.54 0.08 29.4 0.08 C30.58 0.09 30.58 0.09 31.78 0.1 C32.46 0.1 33.15 0.11 33.86 0.11 C35.82 0.24 35.82 0.24 37.5 0.74 C40.68 1.43 43.71 1.37 46.97 1.37 C47.69 1.37 48.42 1.37 49.16 1.37 C51.6 1.37 54.04 1.37 56.48 1.36 C58.24 1.36 60 1.36 61.76 1.37 C66.61 1.37 71.46 1.36 76.3 1.36 C81.53 1.35 86.75 1.36 91.98 1.36 C101.03 1.36 110.09 1.35 119.14 1.35 C132.23 1.34 145.32 1.34 158.42 1.34 C179.65 1.33 200.89 1.33 222.13 1.32 C242.77 1.31 263.4 1.3 284.04 1.3 C285.94 1.3 285.94 1.3 287.89 1.3 C294.27 1.3 300.65 1.29 307.02 1.29 C359.96 1.28 412.89 1.27 465.82 1.24 C465.82 2.23 465.82 3.22 465.82 4.24 C464.84 4.24 463.86 4.24 462.84 4.25 C404.56 4.3 346.27 4.38 287.98 4.47 C280.99 4.48 274 4.49 267 4.51 C265.96 4.51 265.96 4.51 264.89 4.51 C242.33 4.54 219.76 4.57 197.19 4.59 C173.35 4.61 149.51 4.65 125.66 4.69 C111.38 4.72 97.09 4.74 82.8 4.74 C73.01 4.75 63.22 4.76 53.44 4.79 C47.78 4.8 42.13 4.81 36.48 4.81 C31.31 4.8 26.14 4.81 20.96 4.84 C19.09 4.84 17.21 4.84 15.34 4.84 C12.8 4.83 10.26 4.84 7.72 4.86 C6.98 4.85 6.25 4.85 5.49 4.84 C1.12 4.89 -1.73 5.5 -5.18 8.24 C-5.93 10.75 -5.93 10.75 -5.81 13.65 C-5.82 14.78 -5.84 15.9 -5.85 17.06 C-5.84 18.3 -5.83 19.54 -5.82 20.81 C-5.83 22.12 -5.84 23.42 -5.85 24.76 C-5.87 28.35 -5.86 31.95 -5.85 35.54 C-5.85 39.34 -5.87 43.14 -5.89 46.95 C-5.92 54.2 -5.93 61.46 -5.92 68.71 C-5.92 77.58 -5.95 86.45 -5.98 95.31 C-5.98 96.1 -5.98 96.88 -5.98 97.69 C-6 104 -6 104 -6.01 107.12 C-6.03 111.76 -6.04 116.41 -6.05 121.06 C-6.1 145.46 -6.45 169.85 -7.18 194.24 C-7.51 194.24 -7.84 194.24 -8.18 194.24 C-8.18 187.64 -8.18 181.04 -8.18 174.24 C-8.84 174.24 -9.5 174.24 -10.18 174.24 C-10.16 173.18 -10.15 172.12 -10.14 171.02 C-9.98 157.3 -9.82 143.59 -9.68 129.87 C-9.66 128.77 -9.65 127.67 -9.64 126.53 C-9.31 95.39 -9.08 64.26 -9.11 33.12 C-9.11 32.32 -9.12 31.52 -9.12 30.69 C-9.13 21.21 -9.15 11.73 -9.18 2.24 C-6 0.85 -3.47 -0.01 0 0 Z " fill="#B0B1B3" transform="translate(394.176025390625,621.757080078125)"/>
<path d="M0 0 C0.66 0.33 1.32 0.66 2 1 C2 207.91 2 414.82 2 628 C1.34 628.33 0.68 628.66 0 629 C0 627.68 0 626.36 0 625 C-0.66 625 -1.32 625 -2 625 C-2 623.03 -2 623.03 -1.99 621.03 C-1.88 563.27 -1.77 505.51 -1.67 447.76 C-1.67 446.88 -1.67 446.01 -1.67 445.11 C-1.63 426.12 -1.6 407.14 -1.57 388.15 C-1.55 378.84 -1.53 369.53 -1.52 360.22 C-1.52 359.29 -1.51 358.36 -1.51 357.41 C-1.46 327.35 -1.4 297.3 -1.35 267.24 C-1.29 236.36 -1.23 205.49 -1.18 174.61 C-1.17 170.26 -1.16 165.9 -1.16 161.54 C-1.16 160.69 -1.15 159.83 -1.15 158.94 C-1.13 145.12 -1.1 131.29 -1.07 117.46 C-1.05 103.57 -1.02 89.69 -1 75.8 C-0.99 67.54 -0.97 59.28 -0.95 51.02 C-0.94 44.87 -0.93 38.72 -0.92 32.56 C-0.92 30.06 -0.91 27.56 -0.91 25.06 C-0.9 21.68 -0.89 18.31 -0.89 14.93 C-0.89 13.94 -0.88 12.95 -0.88 11.93 C-0.88 11.04 -0.88 10.14 -0.88 9.22 C-0.88 8.45 -0.88 7.68 -0.88 6.88 C-0.88 4.91 -0.88 4.91 -2 3 C-1.34 2.01 -0.68 1.02 0 0 Z " fill="#333334" transform="translate(967,325)"/>
<path d="M0 0 C2 2 2 2 2.25 3.84 C2.25 4.6 2.24 5.35 2.24 6.13 C2.25 7 2.25 7.87 2.25 8.77 C2.24 9.73 2.24 10.7 2.23 11.69 C2.23 12.72 2.23 13.74 2.23 14.8 C2.23 18.27 2.22 21.74 2.2 25.21 C2.2 27.71 2.2 30.2 2.2 32.7 C2.19 38.15 2.18 43.6 2.16 49.05 C2.14 57.15 2.12 65.26 2.11 73.36 C2.09 86.99 2.06 100.62 2.03 114.25 C1.99 127.76 1.96 141.26 1.94 154.76 C1.94 155.6 1.93 156.44 1.93 157.3 C1.93 161.56 1.92 165.82 1.91 170.08 C1.86 200.26 1.79 230.45 1.72 260.63 C1.66 289.97 1.59 319.3 1.54 348.63 C1.54 349.53 1.53 350.43 1.53 351.36 C1.51 360.44 1.5 369.51 1.48 378.59 C1.44 397.07 1.41 415.56 1.37 434.05 C1.37 434.9 1.37 435.75 1.37 436.62 C1.25 493.42 1.13 550.21 1 607 C0.34 607 -0.32 607 -1 607 C-2.23 594.29 -2.14 581.6 -2.12 568.84 C-2.12 566.39 -2.12 563.93 -2.12 561.48 C-2.12 556.16 -2.12 550.84 -2.12 545.52 C-2.11 537.62 -2.11 529.71 -2.11 521.8 C-2.12 508.5 -2.11 495.19 -2.11 481.88 C-2.1 468.72 -2.1 455.55 -2.09 442.38 C-2.09 441.56 -2.09 440.74 -2.09 439.9 C-2.09 435.73 -2.09 431.57 -2.09 427.41 C-2.09 397.94 -2.08 368.48 -2.08 339.01 C-2.07 310.4 -2.06 281.78 -2.05 253.16 C-2.05 252.28 -2.05 251.4 -2.05 250.49 C-2.05 241.62 -2.05 232.76 -2.05 223.89 C-2.05 205.84 -2.05 187.78 -2.04 169.73 C-2.04 168.9 -2.04 168.07 -2.04 167.21 C-2.03 111.81 -2.02 56.4 -2 1 C-1.34 0.67 -0.68 0.34 0 0 Z " fill="#A4A5A7" transform="translate(965,329)"/>
<path d="M0 0 C0.66 0 1.32 0 2 0 C3.13 10.32 3.14 20.57 3.13 30.93 C3.13 32.85 3.13 34.76 3.13 36.67 C3.14 41.9 3.13 47.13 3.13 52.36 C3.13 58.01 3.13 63.66 3.13 69.31 C3.14 80.38 3.14 91.45 3.14 102.52 C3.13 111.53 3.13 120.55 3.13 129.56 C3.13 130.85 3.13 132.13 3.13 133.46 C3.13 136.07 3.13 138.68 3.14 141.29 C3.14 165.1 3.14 188.9 3.13 212.7 C3.13 234.34 3.13 255.98 3.13 277.61 C3.14 301.98 3.14 326.35 3.13 350.72 C3.13 353.33 3.13 355.95 3.13 358.56 C3.13 359.84 3.13 361.12 3.13 362.45 C3.13 371.42 3.13 380.39 3.14 389.36 C3.14 400.34 3.14 411.33 3.13 422.31 C3.13 427.89 3.13 433.48 3.13 439.06 C3.15 466.39 2.81 493.68 2 521 C1.34 521 0.68 521 0 521 C0 349.07 0 177.14 0 0 Z " fill="#CECFCF" transform="translate(945,387)"/>
<path d="M0 0 C0.94 0 1.87 0 2.83 0 C4.8 0 6.76 0.01 8.73 0.02 C11.74 0.04 14.75 0.05 17.76 0.04 C19.67 0.05 21.59 0.06 23.5 0.06 C24.4 0.06 25.3 0.06 26.22 0.07 C27.06 0.07 27.9 0.08 28.76 0.09 C29.49 0.09 30.23 0.09 30.98 0.1 C33.12 0.23 34.99 0.7 37.05 1.23 C39.56 1.33 42.05 1.39 44.55 1.41 C46.03 1.43 47.51 1.45 48.99 1.48 C51.31 1.51 53.63 1.54 55.95 1.56 C58.19 1.57 60.43 1.61 62.68 1.66 C63.72 1.65 63.72 1.65 64.78 1.65 C67.67 1.72 69.54 1.78 71.74 3.75 C73.61 7.28 73.4 10.59 73.3 14.49 C73.29 15.32 73.28 16.15 73.27 17 C73.24 19.74 73.18 22.48 73.12 25.21 C73.1 27.11 73.07 29.01 73.04 30.91 C72.97 35.91 72.89 40.91 72.79 45.91 C72.7 51.01 72.63 56.11 72.55 61.21 C72.4 71.22 72.23 81.22 72.05 91.23 C70.73 91.56 69.41 91.89 68.05 92.23 C68.03 81.31 68.01 70.4 68 59.48 C67.99 54.41 67.99 49.34 67.98 44.27 C67.96 39.38 67.96 34.49 67.96 29.6 C67.95 27.74 67.95 25.87 67.95 24 C67.94 21.39 67.94 18.78 67.94 16.17 C67.93 15.39 67.93 14.61 67.93 13.81 C67.94 8.46 67.94 8.46 69.05 6.23 C26.48 6.73 26.48 6.73 -16.95 7.23 C-16.95 35.28 -16.95 63.33 -16.95 92.23 C-18.27 91.9 -19.59 91.57 -20.95 91.23 C-20.95 63.51 -20.95 35.79 -20.95 7.23 C-20.29 7.23 -19.63 7.23 -18.95 7.23 C-18.76 6.45 -18.58 5.66 -18.39 4.86 C-16.95 2.23 -16.95 2.23 -13.98 1.08 C-9.34 -0.09 -4.76 -0.04 0 0 Z " fill="#D9D9D9" transform="translate(672.94921875,770.76953125)"/>
<path d="M0 0 C1.8 0 3.61 0.01 5.41 0.01 C10.3 0.02 15.19 0.03 20.08 0.05 C25.38 0.07 30.68 0.08 35.98 0.09 C45.14 0.11 54.3 0.13 63.46 0.16 C76.7 0.2 89.95 0.23 103.19 0.27 C124.68 0.32 146.17 0.37 167.66 0.43 C188.53 0.49 209.39 0.55 230.26 0.6 C231.55 0.6 232.83 0.61 234.16 0.61 C240.62 0.63 247.09 0.64 253.55 0.66 C307.08 0.79 360.62 0.94 414.16 1.08 C414.16 1.74 414.16 2.4 414.16 3.08 C264.67 3.08 115.18 3.08 -38.84 3.08 C-38.84 2.42 -38.84 1.76 -38.84 1.08 C-25.88 0.33 -12.98 -0.06 0 0 Z " fill="#323333" transform="translate(466.84344482421875,652.9177093505859)"/>
<path d="M0 0 C156.09 0 312.18 0 473 0 C473 0.66 473 1.32 473 2 C418.38 2.15 363.76 2.3 309.15 2.43 C302.7 2.45 296.26 2.47 289.82 2.48 C288.54 2.49 287.26 2.49 285.94 2.49 C265.14 2.54 244.35 2.6 223.56 2.66 C202.24 2.72 180.92 2.77 159.6 2.83 C146.44 2.86 133.27 2.89 120.11 2.93 C111.09 2.96 102.08 2.98 93.06 3 C87.85 3.01 82.64 3.02 77.43 3.04 C72.67 3.06 67.91 3.07 63.15 3.08 C61.42 3.08 59.69 3.09 57.96 3.09 C55.62 3.1 53.28 3.11 50.95 3.11 C49.64 3.11 48.34 3.11 47 3.12 C44 3 44 3 42 2 C40.64 1.91 39.28 1.88 37.92 1.89 C37.08 1.89 36.24 1.89 35.37 1.89 C34.46 1.89 33.55 1.9 32.62 1.9 C31.69 1.9 30.76 1.91 29.8 1.91 C26.83 1.91 23.85 1.92 20.88 1.94 C18.86 1.94 16.85 1.95 14.83 1.95 C9.89 1.96 4.94 1.98 0 2 C0 1.34 0 0.68 0 0 Z " fill="#313132" transform="translate(388,621)"/>
<path d="M0 0 C11.46 -0.02 22.91 -0.04 34.37 -0.05 C39.69 -0.06 45.01 -0.06 50.33 -0.08 C55.46 -0.09 60.58 -0.09 65.71 -0.09 C67.67 -0.1 69.64 -0.1 71.6 -0.11 C74.33 -0.11 77.07 -0.11 79.81 -0.11 C81.04 -0.12 81.04 -0.12 82.29 -0.12 C87.89 -0.11 87.89 -0.11 89 1 C89.21 2.79 89.37 4.58 89.5 6.38 C89.73 9.52 90 12 91 15 C91.1 16.34 91.15 17.69 91.16 19.03 C91.18 19.85 91.19 20.67 91.2 21.51 C91.21 22.41 91.21 23.3 91.22 24.23 C91.24 25.65 91.24 25.65 91.26 27.1 C91.29 30.25 91.32 33.4 91.35 36.55 C91.37 38.76 91.4 40.97 91.42 43.18 C91.47 47.84 91.52 52.5 91.56 57.16 C91.6 61.88 91.65 66.6 91.7 71.32 C92.22 116.74 92.22 116.74 91.38 136.63 C90.8 150.66 90.89 164.69 90.93 178.73 C90.94 182.39 90.95 186.05 90.95 189.71 C90.96 196.81 90.98 203.9 91 211 C89.02 211.99 89.02 211.99 87 213 C86.19 197 85.89 181.02 85.88 165 C85.87 164.16 85.87 163.32 85.87 162.45 C85.84 152.1 86.06 141.78 86.5 131.44 C87.13 116.18 87.15 100.94 87.13 85.67 C87.12 81.76 87.13 77.85 87.13 73.93 C87.18 52.28 87.18 52.28 86.21 30.66 C85.99 26.9 85.97 23.2 86 19.44 C86.05 13.93 85.96 8.44 85 3 C82.99 0.99 78.93 1.81 76.18 1.79 C74.95 1.78 74.95 1.78 73.69 1.76 C70.97 1.73 68.25 1.71 65.53 1.68 C63.65 1.66 61.76 1.64 59.88 1.62 C54.92 1.57 49.96 1.52 44.99 1.47 C39.93 1.42 34.87 1.36 29.81 1.31 C19.87 1.2 9.94 1.1 0 1 C0 0.67 0 0.34 0 0 Z " fill="#C2C2C4" transform="translate(774,413)"/>
<path d="M0 0 C0.66 0.33 1.32 0.66 2 1 C4.79 1.15 7.55 1.23 10.34 1.28 C11.18 1.3 12.01 1.32 12.88 1.34 C15.56 1.4 18.25 1.45 20.94 1.5 C40.92 1.89 40.92 1.89 49.25 2.77 C52.75 3.06 56.24 3.14 59.75 3.21 C60.42 3.23 61.1 3.24 61.79 3.25 C64.57 3.31 67.35 3.37 70.13 3.4 C72.19 3.43 74.25 3.47 76.31 3.52 C77.53 3.54 78.74 3.56 79.99 3.58 C83 4 83 4 84.67 5.03 C86.76 8.12 86.39 11.36 86.34 14.96 C86.34 16.17 86.34 16.17 86.34 17.41 C86.34 20.09 86.32 22.77 86.29 25.45 C86.29 27.31 86.28 29.16 86.28 31.02 C86.27 35.91 86.24 40.79 86.21 45.68 C86.18 50.67 86.16 55.66 86.15 60.64 C86.11 70.43 86.06 80.21 86 90 C80.38 92.94 78.1 93.16 72 92 C72 91.67 72 91.34 72 91 C74.97 91 77.94 91 81 91 C81 63.61 81 36.22 81 8 C79.35 7.67 77.7 7.34 76 7 C76 6.67 76 6.34 76 6 C50.26 5.67 24.52 5.34 -2 5 C-2 23.48 -2 41.96 -2 61 C-3.32 61.66 -4.64 62.32 -6 63 C-6.77 59.54 -7.15 56.29 -7.22 52.75 C-7.25 51.73 -7.27 50.71 -7.29 49.66 C-7.36 45.02 -7.42 40.38 -7.46 35.74 C-7.49 33.29 -7.53 30.84 -7.58 28.39 C-7.66 24.86 -7.7 21.32 -7.72 17.79 C-7.75 16.69 -7.78 15.6 -7.82 14.48 C-7.8 7.03 -7.8 7.03 -5.39 3.94 C-3.66 2.44 -1.96 1.17 0 0 Z " fill="#89898A" transform="translate(540,772)"/>
<path d="M0 0 C1.32 0 2.64 0 4 0 C4.33 0.99 4.66 1.98 5 3 C4.67 3.33 4.34 3.66 4 4 C3.89 5.52 3.86 7.04 3.85 8.56 C3.84 9.54 3.83 10.52 3.82 11.54 C3.82 13.17 3.82 13.17 3.81 14.84 C3.8 15.98 3.79 17.12 3.79 18.29 C3.77 20.78 3.75 23.26 3.74 25.74 C3.72 29.67 3.69 33.59 3.66 37.51 C3.6 45.84 3.55 54.17 3.5 62.5 C3.44 72.15 3.38 81.79 3.31 91.44 C3.28 95.32 3.26 99.2 3.24 103.07 C3.22 105.44 3.21 107.8 3.19 110.16 C3.18 111.8 3.18 111.8 3.18 113.46 C3.17 114.45 3.16 115.43 3.15 116.44 C3.15 117.31 3.14 118.17 3.14 119.05 C3 121 3 121 2 122 C0.06 122.1 -1.88 122.12 -3.81 122.12 C-5.08 122.12 -6.34 122.12 -7.64 122.12 C-9.06 122.12 -10.47 122.12 -11.88 122.11 C-13.36 122.11 -14.84 122.11 -16.32 122.11 C-20.34 122.11 -24.37 122.11 -28.39 122.1 C-32.59 122.1 -36.79 122.09 -40.99 122.09 C-48.96 122.09 -56.92 122.08 -64.88 122.07 C-73.94 122.06 -83 122.06 -92.06 122.05 C-110.71 122.04 -129.35 122.02 -148 122 C-148 121.67 -148 121.34 -148 121 C-100.81 121 -53.62 121 -5 121 C-5 120.34 -5 119.68 -5 119 C-4.01 119 -3.02 119 -2 119 C-2 117.95 -2 116.9 -2.01 115.82 C-2.03 105.77 -2.04 95.73 -2.05 85.69 C-2.06 80.53 -2.06 75.37 -2.08 70.21 C-2.16 30.76 -2.16 30.76 -1.56 12.67 C-1.52 11.47 -1.48 10.27 -1.44 9.04 C-1.13 1.13 -1.13 1.13 0 0 Z " fill="#C8C8C9" transform="translate(743,382)"/>
<path d="M0 0 C0.33 0 0.66 0 1 0 C2.01 10.03 2.42 20.08 2.72 30.15 C2.78 32.02 2.85 33.89 2.93 35.76 C3.04 38.5 3.13 41.23 3.21 43.96 C3.27 45.21 3.27 45.21 3.33 46.49 C3.42 50.55 3.33 52.48 1.11 56 C-2.4 59.33 -4.55 59.11 -9.3 59.08 C-9.95 59.07 -10.61 59.07 -11.28 59.06 C-13.49 59.05 -15.69 59.03 -17.89 59.01 C-19.47 58.99 -21.05 58.98 -22.63 58.97 C-26.04 58.95 -29.44 58.92 -32.85 58.89 C-38.28 58.84 -43.71 58.8 -49.14 58.77 C-62.66 58.67 -76.18 58.56 -89.69 58.45 C-100.14 58.37 -110.59 58.29 -121.03 58.22 C-125.53 58.18 -130.02 58.15 -134.51 58.11 C-139.58 58.06 -144.64 58.03 -149.71 57.99 C-150.91 57.99 -150.91 57.99 -152.14 57.98 C-161.23 57.92 -170.29 58 -179.37 58.32 C-180.21 58.35 -181.05 58.38 -181.92 58.41 C-185.94 58.55 -189.95 58.71 -193.96 58.9 C-195.38 58.96 -196.81 59.01 -198.23 59.07 C-200.09 59.16 -200.09 59.16 -201.99 59.25 C-205 59 -205 59 -206.92 57.5 C-207.28 57 -207.63 56.51 -208 56 C-205.99 53.99 -201.9 54.85 -199.15 54.85 C-198.32 54.84 -197.48 54.84 -196.63 54.84 C-193.81 54.82 -191 54.82 -188.19 54.81 C-186.18 54.8 -184.18 54.79 -182.17 54.79 C-177.84 54.77 -173.51 54.75 -169.18 54.74 C-162.33 54.72 -155.49 54.69 -148.65 54.66 C-134.12 54.6 -119.59 54.55 -105.06 54.5 C-89.39 54.44 -73.71 54.39 -58.03 54.32 C-51.22 54.29 -44.41 54.27 -37.6 54.25 C-33.37 54.24 -29.14 54.22 -24.91 54.2 C-22.95 54.19 -20.98 54.19 -19.01 54.18 C-16.33 54.18 -13.66 54.17 -10.98 54.15 C-9.8 54.15 -9.8 54.15 -8.59 54.15 C-4.67 54.2 -4.67 54.2 -1 53 C-0.67 35.51 -0.34 18.02 0 0 Z " fill="#A8A9AB" transform="translate(772,837)"/>
<path d="M0 0 C0.33 0 0.66 0 1 0 C1.2 32.04 1.38 64.07 1.54 96.11 C1.55 99.89 1.57 103.67 1.59 107.45 C1.6 108.2 1.6 108.95 1.6 109.73 C1.67 121.92 1.74 134.11 1.81 146.31 C1.89 158.81 1.96 171.32 2.01 183.83 C2.05 191.55 2.09 199.27 2.15 206.99 C2.19 212.9 2.21 218.82 2.23 224.73 C2.24 227.16 2.26 229.59 2.28 232.02 C2.31 235.33 2.32 238.64 2.32 241.95 C2.34 242.92 2.35 243.89 2.36 244.89 C2.36 245.77 2.36 246.66 2.35 247.57 C2.36 248.34 2.36 249.1 2.37 249.89 C1.87 252.77 1.18 254.02 -1 256 C-3.54 256.39 -5.64 256.52 -8.18 256.48 C-8.92 256.48 -9.66 256.48 -10.42 256.49 C-12.92 256.49 -15.41 256.47 -17.91 256.44 C-19.71 256.44 -21.52 256.44 -23.32 256.44 C-28.28 256.44 -33.24 256.41 -38.21 256.38 C-43.56 256.35 -48.9 256.34 -54.25 256.33 C-63.52 256.32 -72.79 256.28 -82.06 256.24 C-95.47 256.17 -108.87 256.13 -122.27 256.1 C-144.02 256.04 -165.76 255.96 -187.51 255.87 C-208.63 255.79 -229.76 255.71 -250.89 255.65 C-252.19 255.64 -253.49 255.64 -254.83 255.63 C-261.36 255.61 -267.89 255.59 -274.42 255.57 C-328.61 255.41 -382.81 255.21 -437 255 C-437 254.67 -437 254.34 -437 254 C-436.09 254 -435.18 254 -434.24 253.99 C-380.32 253.89 -326.4 253.78 -272.48 253.67 C-266.01 253.66 -259.55 253.64 -253.08 253.63 C-251.14 253.62 -251.14 253.62 -249.17 253.62 C-228.3 253.58 -207.42 253.53 -186.55 253.5 C-165.14 253.45 -143.74 253.41 -122.33 253.36 C-109.11 253.33 -95.89 253.31 -82.68 253.28 C-73.62 253.27 -64.57 253.25 -55.51 253.23 C-50.29 253.21 -45.06 253.2 -39.83 253.2 C-35.04 253.19 -30.26 253.18 -25.48 253.16 C-23.74 253.16 -22.01 253.16 -20.27 253.16 C-17.92 253.16 -15.57 253.15 -13.22 253.14 C-11.92 253.14 -10.61 253.13 -9.26 253.13 C-5.54 252.98 -5.54 252.98 -2 252 C-0.85 249.7 -0.87 248.41 -0.86 245.85 C-0.86 244.97 -0.85 244.1 -0.84 243.2 C-0.84 242.23 -0.84 241.26 -0.84 240.27 C-0.83 238.73 -0.83 238.73 -0.83 237.17 C-0.81 233.72 -0.8 230.27 -0.79 226.82 C-0.79 224.36 -0.78 221.9 -0.76 219.43 C-0.74 214.12 -0.72 208.8 -0.71 203.49 C-0.69 195.81 -0.66 188.12 -0.63 180.44 C-0.58 167.97 -0.54 155.5 -0.5 143.04 C-0.46 130.93 -0.42 118.81 -0.37 106.7 C-0.37 105.58 -0.37 105.58 -0.36 104.44 C-0.35 100.7 -0.34 96.95 -0.32 93.21 C-0.21 62.14 -0.1 31.07 0 0 Z " fill="#D9D9D9" transform="translate(892,399)"/>
<path d="M0 0 C0.66 0.33 1.32 0.66 2 1 C2 207.91 2 414.82 2 628 C1.67 628 1.34 628 1 628 C1 626.17 1 626.17 0.99 624.3 C0.92 570.41 0.84 516.51 0.76 462.62 C0.76 461.8 0.75 460.99 0.75 460.14 C0.72 442.36 0.7 424.58 0.67 406.8 C0.66 398.07 0.64 389.35 0.63 380.63 C0.63 379.76 0.62 378.89 0.62 378 C0.58 349.95 0.54 321.9 0.5 293.84 C0.46 264.98 0.41 236.11 0.37 207.25 C0.36 203.16 0.35 199.07 0.35 194.97 C0.35 194.17 0.34 193.36 0.34 192.53 C0.32 179.65 0.3 166.78 0.29 153.9 C0.27 140.9 0.25 127.9 0.23 114.9 C0.21 107.88 0.2 100.86 0.2 93.84 C0.16 57.41 0.16 57.41 -0.45 21 C-0.47 20.17 -0.49 19.34 -0.51 18.49 C-0.56 16.22 -0.63 13.95 -0.69 11.69 C-0.73 10.43 -0.76 9.18 -0.8 7.89 C-0.81 5.06 -0.81 5.06 -2 3 C-1.34 2.01 -0.68 1.02 0 0 Z " fill="#1F1F1F" transform="translate(967,325)"/>
<path d="M0 0 C0.33 0 0.66 0 1 0 C1 47.52 1 95.04 1 144 C-2.78 145.89 -4.04 146.26 -8.03 146.27 C-9.46 146.27 -9.46 146.27 -10.93 146.27 C-12.42 146.26 -12.42 146.26 -13.94 146.25 C-14.93 146.26 -15.92 146.27 -16.94 146.27 C-17.89 146.27 -18.85 146.27 -19.84 146.27 C-20.71 146.26 -21.58 146.26 -22.48 146.26 C-25.34 145.97 -27.45 145.33 -30 144 C-31.03 140.92 -31.12 138.83 -31.11 135.61 C-31.11 134.51 -31.11 133.41 -31.11 132.27 C-31.11 131.09 -31.1 129.9 -31.1 128.68 C-31.1 127.46 -31.09 126.24 -31.09 124.99 C-31.09 121.1 -31.08 117.2 -31.06 113.31 C-31.06 110.68 -31.05 108.04 -31.05 105.4 C-31.04 98.94 -31.02 92.47 -31 86 C-55.25 85.5 -55.25 85.5 -80 85 C-80 84.67 -80 84.34 -80 84 C-72.79 83.9 -65.58 83.83 -58.38 83.78 C-55.92 83.76 -53.47 83.73 -51.02 83.7 C-47.49 83.65 -43.97 83.63 -40.45 83.61 C-38.8 83.58 -38.8 83.58 -37.12 83.55 C-36.09 83.55 -35.07 83.55 -34.02 83.55 C-32.67 83.53 -32.67 83.53 -31.3 83.52 C-29 84 -29 84 -27.21 85.72 C-25.81 88.36 -25.61 90.03 -25.58 93.01 C-25.57 94.01 -25.55 95 -25.53 96.03 C-25.53 97.09 -25.53 98.16 -25.52 99.26 C-25.51 100.36 -25.49 101.46 -25.48 102.59 C-25.43 106.1 -25.4 109.61 -25.38 113.12 C-25.34 116.64 -25.3 120.16 -25.25 123.68 C-25.23 125.87 -25.2 128.06 -25.19 130.25 C-25.18 131.24 -25.17 132.23 -25.16 133.25 C-25.15 134.12 -25.14 134.99 -25.14 135.89 C-25.13 138.06 -25.13 138.06 -24 140 C-19.76 141 -15.72 141.08 -11.38 141 C-7.54 140.93 -4.76 141.06 -1 142 C-0.67 95.14 -0.34 48.28 0 0 Z " fill="#AEAFB1" transform="translate(892,750)"/>
<path d="M0 0 C4.36 0.04 8.71 0.06 13.07 0.09 C21.27 0.15 29.47 0.21 37.67 0.27 C47.03 0.35 56.39 0.41 65.74 0.48 C84.95 0.61 104.15 0.75 123.36 0.9 C123.69 1.89 124.02 2.88 124.36 3.9 C62.65 3.9 0.94 3.9 -62.64 3.9 C-62.31 2.91 -61.98 1.92 -61.64 0.9 C-41.08 -0.12 -20.58 -0.17 0 0 Z " fill="#2D2E2E" transform="translate(637.6424329280853,894.1005351543427)"/>
<path d="M0 0 C0.66 0 1.32 0 2 0 C2 85.8 2 171.6 2 260 C1.34 260 0.68 260 0 260 C-0.15 227.74 -0.3 195.49 -0.43 163.23 C-0.45 159.42 -0.47 155.62 -0.48 151.81 C-0.49 151.05 -0.49 150.29 -0.49 149.51 C-0.54 137.24 -0.6 124.96 -0.66 112.68 C-0.72 100.09 -0.77 87.49 -0.83 74.9 C-0.86 67.13 -0.89 59.35 -0.93 51.58 C-0.96 45.62 -0.98 39.66 -1.01 33.7 C-1.02 31.26 -1.03 28.81 -1.04 26.37 C-1.06 23.03 -1.07 19.7 -1.08 16.36 C-1.09 15.39 -1.1 14.42 -1.1 13.42 C-1.11 8.83 -0.95 4.52 0 0 Z " fill="#313232" transform="translate(893,389)"/>
<path d="M0 0 C0.66 0 1.32 0 2 0 C3.14 9.06 3.13 18.05 3.1 27.16 C3.1 28.81 3.09 30.45 3.09 32.1 C3.09 36.4 3.08 40.69 3.07 44.99 C3.06 49.39 3.05 53.79 3.05 58.18 C3.04 66.79 3.02 75.39 3 84 C2.34 84 1.68 84 1 84 C1.33 84.99 1.66 85.98 2 87 C1.67 87.66 1.34 88.32 1 89 C-11.63 90.85 -24.84 90.13 -37.56 90.1 C-39.69 90.1 -41.82 90.09 -43.95 90.09 C-49.5 90.09 -55.05 90.08 -60.6 90.07 C-66.29 90.06 -71.97 90.05 -77.66 90.05 C-88.77 90.04 -99.89 90.02 -111 90 C-111.33 89.34 -111.66 88.68 -112 88 C-75.7 87.67 -39.4 87.34 -2 87 C-1.71 59.86 -1.71 59.86 -1.43 32.73 C-1.37 27.48 -1.37 27.48 -1.34 25.02 C-1.32 23.3 -1.31 21.59 -1.29 19.87 C-1.27 17.27 -1.24 14.67 -1.21 12.07 C-1.2 11.31 -1.19 10.55 -1.19 9.76 C-1.14 6.38 -1.05 3.24 0 0 Z " fill="#A8A9AA" transform="translate(534,384)"/>
<path d="M0 0 C0.33 23.1 0.66 46.2 1 70 C6.08 70.06 11.16 70.12 16.4 70.18 C19.63 70.22 22.87 70.26 26.11 70.31 C31.23 70.37 36.36 70.44 41.48 70.5 C45.62 70.55 49.76 70.6 53.89 70.65 C55.47 70.67 57.04 70.69 58.61 70.71 C66.79 70.8 74.87 71.01 83 72 C83 72.33 83 72.66 83 73 C66.4 73.35 49.8 73.67 33.19 73.95 C31.19 73.98 29.18 74.01 27.18 74.05 C22.08 74.14 16.98 74.21 11.88 74.25 C10.08 74.28 10.08 74.28 8.24 74.31 C7.17 74.32 6.1 74.32 4.99 74.33 C4.09 74.34 3.18 74.35 2.25 74.36 C0 74 0 74 -1.62 72.9 C-3.69 70.05 -3.36 67.73 -3.34 64.23 C-3.34 63.55 -3.34 62.87 -3.34 62.16 C-3.34 59.91 -3.32 57.65 -3.29 55.39 C-3.29 53.83 -3.28 52.26 -3.28 50.7 C-3.27 46.58 -3.24 42.46 -3.21 38.34 C-3.18 34.14 -3.16 29.94 -3.15 25.74 C-3.11 17.49 -3.06 9.25 -3 1 C-1 0 -1 0 0 0 Z " fill="#333334" transform="translate(658,791)"/>
<path d="M0 0 C0.33 0 0.66 0 1 0 C1.87 16.49 2.15 32.94 2.13 49.45 C2.13 51.93 2.13 54.41 2.14 56.9 C2.14 62.06 2.14 67.22 2.13 72.39 C2.12 78.92 2.13 85.46 2.13 91.99 C2.14 97.11 2.14 102.22 2.13 107.33 C2.13 109.74 2.13 112.14 2.14 114.55 C2.15 131.39 1.74 148.18 1 165 C0.67 165 0.34 165 0 165 C-1.23 134.54 -1.15 104.07 -1.13 73.59 C-1.12 67.96 -1.13 62.32 -1.13 56.68 C-1.14 50.51 -1.14 44.34 -1.13 38.16 C-1.13 35.56 -1.13 32.97 -1.14 30.37 C-1.14 26.76 -1.13 23.16 -1.13 19.55 C-1.13 17.97 -1.13 17.97 -1.14 16.35 C-1.12 10.8 -0.82 5.48 0 0 Z " fill="#CFD0D0" transform="translate(414,656)"/>
<path d="M0 0 C0.99 0 1.98 0 3 0 C3 54.45 3 108.9 3 165 C2.01 165 1.02 165 0 165 C0 110.55 0 56.1 0 0 Z " fill="#404041" transform="translate(415,656)"/>
<path d="M0 0 C0.66 0.33 1.32 0.66 2 1 C3.59 1.09 5.19 1.11 6.79 1.1 C7.79 1.09 8.79 1.09 9.82 1.09 C10.91 1.08 12 1.07 13.13 1.06 C14.27 1.06 15.4 1.05 16.57 1.05 C21.43 1.03 26.29 1.01 31.15 0.98 C47.8 0.89 64.37 1.17 81 2 C81 2.33 81 2.66 81 3 C54.27 3.33 27.54 3.66 0 4 C0 32.05 0 60.1 0 89 C-1.32 88.67 -2.64 88.34 -4 88 C-4 60.28 -4 32.56 -4 4 C-3.34 4 -2.68 4 -2 4 C-1.34 2.68 -0.68 1.36 0 0 Z " fill="#A3A4A6" transform="translate(656,774)"/>
<path d="M0 0 C1.42 0.09 2.83 0.2 4.25 0.31 C5.43 0.4 5.43 0.4 6.64 0.49 C9.56 1.12 10.87 1.9 13 4 C13.49 6.79 13.49 6.79 13.46 10.13 C13.46 11.33 13.45 12.53 13.45 13.76 C13.41 15.64 13.41 15.64 13.38 17.56 C13.37 18.82 13.37 20.08 13.37 21.37 C13.28 30.72 13.28 30.72 11 33 C8.32 30.32 8.69 28.86 8.59 25.12 C8.55 23.95 8.51 22.78 8.47 21.58 C8.44 20.36 8.41 19.14 8.38 17.88 C8.34 16.64 8.3 15.41 8.26 14.14 C8.16 11.1 8.08 8.05 8 5 C7.02 5 6.04 5 5.03 5.01 C-4.19 5.03 -13.42 5.04 -22.64 5.05 C-27.38 5.06 -32.13 5.06 -36.87 5.08 C-41.45 5.09 -46.03 5.09 -50.6 5.09 C-52.35 5.1 -54.09 5.1 -55.84 5.11 C-58.29 5.11 -60.73 5.11 -63.18 5.11 C-64.26 5.12 -64.26 5.12 -65.36 5.12 C-69.04 5.12 -72.43 4.88 -76 4 C-76 3.34 -76 2.68 -76 2 C-50.92 1.67 -25.84 1.34 0 1 C0 0.67 0 0.34 0 0 Z " fill="#A5A6A7" transform="translate(852,772)"/>
<path d="M0 0 C0.66 0.33 1.32 0.66 2 1 C2 39.61 2 78.22 2 118 C1.01 118.5 1.01 118.5 0 119 C-1.56 115.88 -1.14 112.58 -1.13 109.16 C-1.13 108.34 -1.13 107.53 -1.13 106.69 C-1.14 103.99 -1.14 101.28 -1.13 98.57 C-1.13 96.67 -1.13 94.77 -1.14 92.87 C-1.14 88.86 -1.14 84.85 -1.13 80.84 C-1.12 75.8 -1.13 70.75 -1.13 65.7 C-1.16 43.78 -1.02 21.9 0 0 Z " fill="#919193" transform="translate(742,383)"/>
<path d="M0 0 C18.35 -0.07 36.7 -0.12 55.05 -0.16 C63.57 -0.17 72.09 -0.19 80.61 -0.23 C88.03 -0.26 95.45 -0.28 102.88 -0.28 C106.81 -0.29 110.74 -0.3 114.68 -0.32 C118.37 -0.34 122.07 -0.34 125.77 -0.34 C127.78 -0.34 129.79 -0.36 131.8 -0.37 C132.99 -0.37 134.18 -0.37 135.41 -0.36 C136.44 -0.36 137.48 -0.37 138.55 -0.37 C139.36 -0.25 140.17 -0.13 141 0 C143.3 3.45 143.14 4.23 142.62 8.19 C142.51 9.09 142.4 9.99 142.29 10.92 C142.15 11.95 142.15 11.95 142 13 C141.67 13 141.34 13 141 13 C140.94 12.36 140.88 11.72 140.82 11.07 C140.73 10.24 140.65 9.41 140.56 8.56 C140.48 7.74 140.4 6.92 140.32 6.07 C140.21 4.01 140.21 4.01 139 3 C137.2 2.89 135.4 2.85 133.6 2.84 C131.85 2.83 131.85 2.83 130.05 2.81 C128.11 2.8 128.11 2.8 126.13 2.79 C124.76 2.79 123.39 2.78 122.02 2.76 C118.29 2.74 114.56 2.72 110.83 2.7 C106.94 2.67 103.04 2.65 99.15 2.62 C91.77 2.57 84.4 2.53 77.02 2.48 C68.62 2.43 60.23 2.38 51.83 2.32 C34.55 2.21 17.28 2.1 0 2 C0 1.34 0 0.68 0 0 Z " fill="#D7D8D8" transform="translate(751,382)"/>
<path d="M0 0 C0.77 0 1.54 0.01 2.34 0.01 C3.15 0.01 3.96 0.01 4.8 0.01 C7.55 0 10.3 0.01 13.04 0.02 C15 0.02 16.96 0.02 18.93 0.02 C24.27 0.01 29.61 0.02 34.95 0.03 C40.52 0.03 46.1 0.03 51.67 0.04 C62.24 0.04 72.8 0.05 83.37 0.06 C95.39 0.07 107.41 0.07 119.44 0.08 C144.18 0.09 168.92 0.11 193.66 0.13 C193.66 0.46 193.66 0.79 193.66 1.13 C192.88 1.13 192.1 1.14 191.3 1.14 C172.27 1.25 153.25 1.35 134.23 1.47 C125.03 1.52 115.83 1.58 106.63 1.63 C98.62 1.67 90.6 1.72 82.58 1.77 C78.33 1.79 74.09 1.82 69.84 1.84 C65.84 1.86 61.85 1.88 57.85 1.91 C56.38 1.92 54.92 1.93 53.45 1.93 C46.43 1.96 39.61 2.08 32.66 3.13 C31.28 3.24 29.89 3.33 28.5 3.38 C27.79 3.41 27.08 3.44 26.34 3.47 C25.61 3.5 24.87 3.52 24.11 3.55 C23.33 3.58 22.55 3.61 21.75 3.64 C20.11 3.69 18.48 3.75 16.84 3.8 C15.17 3.85 13.5 3.91 11.83 3.98 C9.4 4.08 6.98 4.16 4.55 4.24 C3.8 4.27 3.06 4.31 2.29 4.34 C-2.89 4.47 -2.89 4.47 -5.33 2.62 C-5.66 2.13 -6 1.64 -6.34 1.13 C-4.59 -0.61 -2.32 0.01 0 0 Z " fill="#9A9B9D" transform="translate(570.3375311493874,891.8709186911583)"/>
<path d="M0 0 C46.86 0 93.72 0 142 0 C142.99 2.48 142.99 2.48 144 5 C143.34 5.33 142.68 5.66 142 6 C142 5.01 142 4.02 142 3 C95.14 2.67 48.28 2.34 0 2 C0 1.34 0 0.68 0 0 Z " fill="#D8D9DA" transform="translate(391,382)"/>
<path d="M0 0 C0.33 0 0.66 0 1 0 C1.14 35.95 0.96 71.89 0.59 107.83 C0.56 111 0.53 114.18 0.5 117.35 C0.46 122.39 0.4 127.43 0.35 132.47 C0.33 134.35 0.31 136.23 0.29 138.11 C0.27 140.69 0.24 143.28 0.21 145.86 C0.2 146.62 0.19 147.38 0.19 148.15 C0.14 151.89 -0.11 155.37 -1 159 C-0.34 159 0.32 159 1 159 C1 165.6 1 172.2 1 179 C0.67 179 0.34 179 0 179 C-0.06 178 -0.12 177 -0.18 175.97 C-0.27 174.68 -0.35 173.39 -0.44 172.06 C-0.52 170.77 -0.6 169.49 -0.68 168.16 C-0.65 165.14 -0.65 165.14 -2 164 C-2.1 162.63 -2.12 161.26 -2.12 159.89 C-2.12 159.01 -2.12 158.12 -2.12 157.21 C-2.12 156.23 -2.12 155.26 -2.11 154.25 C-2.11 153.22 -2.11 152.2 -2.11 151.14 C-2.11 147.74 -2.11 144.34 -2.1 140.93 C-2.1 138.58 -2.09 136.23 -2.09 133.88 C-2.09 127.67 -2.08 121.46 -2.07 115.26 C-2.06 108.93 -2.05 102.6 -2.05 96.28 C-2.04 83.85 -2.02 71.43 -2 59 C-1.34 59 -0.68 59 0 59 C0 39.53 0 20.06 0 0 Z " fill="#434445" transform="translate(385,637)"/>
<path d="M0 0 C0.33 0 0.66 0 1 0 C1.2 32.04 1.38 64.07 1.54 96.11 C1.55 99.89 1.57 103.67 1.59 107.45 C1.6 108.2 1.6 108.95 1.6 109.73 C1.67 121.92 1.74 134.11 1.81 146.31 C1.89 158.81 1.96 171.32 2.01 183.83 C2.05 191.55 2.09 199.27 2.15 206.99 C2.19 212.9 2.21 218.82 2.23 224.73 C2.24 227.16 2.26 229.59 2.28 232.02 C2.31 235.33 2.32 238.64 2.32 241.95 C2.34 242.92 2.35 243.89 2.36 244.89 C2.36 245.77 2.36 246.66 2.35 247.57 C2.36 248.34 2.36 249.1 2.37 249.89 C1.89 252.61 0.87 254 -1 256 C-3.48 256.39 -3.48 256.39 -6.19 256.25 C-7.09 256.21 -7.99 256.18 -8.92 256.14 C-9.61 256.09 -10.29 256.05 -11 256 C-8 254 -8 254 -4.88 253 C-1.87 252.33 -1.87 252.33 -1 250 C-0.9 248.62 -0.87 247.23 -0.86 245.85 C-0.85 244.54 -0.85 244.54 -0.84 243.2 C-0.84 242.23 -0.84 241.26 -0.84 240.27 C-0.84 239.25 -0.83 238.22 -0.83 237.17 C-0.81 233.72 -0.8 230.27 -0.79 226.82 C-0.79 224.36 -0.78 221.9 -0.76 219.43 C-0.74 214.12 -0.72 208.8 -0.71 203.49 C-0.69 195.81 -0.66 188.12 -0.63 180.44 C-0.58 167.97 -0.54 155.5 -0.5 143.04 C-0.46 130.93 -0.42 118.81 -0.37 106.7 C-0.37 105.96 -0.37 105.21 -0.36 104.44 C-0.35 100.7 -0.34 96.95 -0.32 93.21 C-0.21 62.14 -0.1 31.07 0 0 Z " fill="#B7B8BA" transform="translate(892,399)"/>
<path d="M0 0 C5.58 -0.03 11.17 -0.04 16.75 -0.05 C18.64 -0.06 20.53 -0.07 22.43 -0.08 C32.47 -0.12 42.39 -0.09 52.4 0.88 C55.11 1.16 55.11 1.16 58 0 C58.66 0.33 59.32 0.66 60 1 C61.49 1.13 62.97 1.2 64.46 1.25 C65.35 1.28 66.23 1.31 67.14 1.35 C69 1.41 70.86 1.46 72.72 1.52 C73.61 1.55 74.49 1.59 75.4 1.62 C76.21 1.65 77.02 1.67 77.86 1.7 C80 2 80 2 83 4 C82.67 4.99 82.34 5.98 82 7 C81.5 6.01 81.5 6.01 81 5 C80.12 5.01 79.24 5.01 78.33 5.02 C75.01 5.03 71.68 5.05 68.36 5.05 C66.93 5.06 65.5 5.07 64.07 5.08 C56.73 5.12 49.49 5.03 42.18 4.26 C34.25 3.62 26.26 3.61 18.31 3.44 C16.44 3.39 14.56 3.35 12.68 3.31 C8.12 3.2 3.56 3.1 -1 3 C-0.67 2.01 -0.34 1.02 0 0 Z " fill="#D9D9D9" transform="translate(542,771)"/>
<path d="M0 0 C0.99 0 1.98 0 3 0 C3 27.39 3 54.78 3 83 C2.01 83 1.02 83 0 83 C0 55.61 0 28.22 0 0 Z " fill="#AEAFB1" transform="translate(623,779)"/>
<path d="M0 0 C1.32 1.32 2.64 2.64 4 4 C3.67 4.99 3.34 5.98 3 7 C2.94 9.38 2.94 11.76 2.98 14.13 C2.99 14.86 3 15.58 3.01 16.32 C3.04 18.71 3.08 21.09 3.12 23.48 C3.15 25.14 3.17 26.79 3.19 28.44 C3.26 32.8 3.32 37.15 3.39 41.51 C3.47 45.95 3.53 50.4 3.6 54.84 C3.72 63.56 3.86 72.28 4 81 C5.32 81.66 6.64 82.32 8 83 C5.66 82.74 3.32 82.41 1 82 C-0.49 79.02 -0.17 76.29 -0.22 72.97 C-0.23 72.24 -0.24 71.52 -0.26 70.77 C-0.29 68.37 -0.32 65.97 -0.35 63.57 C-0.37 61.91 -0.4 60.24 -0.42 58.57 C-0.47 55.08 -0.52 51.58 -0.56 48.08 C-0.61 43.6 -0.68 39.12 -0.74 34.64 C-0.79 31.2 -0.84 27.75 -0.88 24.31 C-0.9 22.66 -0.93 21.01 -0.95 19.36 C-0.99 17.05 -1.01 14.73 -1.04 12.42 C-1.05 11.11 -1.07 9.79 -1.09 8.44 C-1.01 5.47 -0.7 2.87 0 0 Z " fill="#A6A7A8" transform="translate(385,450)"/>
<path d="M0 0 C1.1 -0 1.1 -0 2.22 -0 C4.64 0 7.07 0.01 9.49 0.02 C11.17 0.02 12.85 0.02 14.53 0.02 C18.95 0.02 23.37 0.03 27.79 0.04 C32.3 0.06 36.81 0.06 41.33 0.06 C50.18 0.08 59.03 0.09 67.89 0.11 C68.38 1.6 68.38 1.6 68.89 3.11 C29.78 3.61 29.78 3.61 -10.11 4.11 C-9.78 3.12 -9.45 2.13 -9.11 1.11 C-6.17 -0.36 -3.22 -0.02 0 0 Z " fill="#D8D8D8" transform="translate(784.11181640625,770.886474609375)"/>
<path d="M0 0 C0.66 0 1.32 0 2 0 C2 31.02 2 62.04 2 94 C1.34 93.67 0.68 93.34 0 93 C-1.79 62.07 -1.57 30.94 0 0 Z " fill="#999A9C" transform="translate(861,530)"/>
<path d="M0 0 C0.66 0 1.32 0 2 0 C2 38.94 2 77.88 2 118 C1.67 118 1.34 118 1 118 C1 111.4 1 104.8 1 98 C0.34 98 -0.32 98 -1 98 C-0.67 65.66 -0.34 33.32 0 0 Z " fill="#A8A9AB" transform="translate(385,698)"/>
<path d="M0 0 C3.98 -0.03 7.96 -0.05 11.94 -0.06 C13.07 -0.07 14.21 -0.08 15.38 -0.09 C16.46 -0.09 17.54 -0.09 18.65 -0.1 C20.15 -0.11 20.15 -0.11 21.68 -0.11 C24 0 24 0 25 1 C25.16 3 25.25 5 25.32 7 C25.36 8.22 25.4 9.43 25.44 10.69 C25.48 11.96 25.52 13.24 25.56 14.56 C25.61 15.85 25.65 17.13 25.69 18.45 C25.8 21.63 25.9 24.82 26 28 C17.27 28.88 8.64 29.16 -0.12 29.12 C-0.78 29.12 -1.45 29.12 -2.12 29.12 C-21.42 29.09 -40.71 28.53 -60 28 C-60 27.67 -60 27.34 -60 27 C-32.28 27 -4.56 27 24 27 C23.67 19.41 23.34 11.82 23 4 C15.08 3.67 7.16 3.34 -1 3 C-0.67 2.01 -0.34 1.02 0 0 Z " fill="#4E4F50" transform="translate(836,776)"/>
<path d="M0 0 C11.46 -0.02 22.91 -0.04 34.37 -0.05 C39.69 -0.06 45.01 -0.06 50.33 -0.08 C55.46 -0.09 60.58 -0.09 65.71 -0.09 C67.67 -0.1 69.64 -0.1 71.6 -0.11 C74.33 -0.11 77.07 -0.11 79.81 -0.11 C81.04 -0.12 81.04 -0.12 82.29 -0.12 C87.89 -0.11 87.89 -0.11 89 1 C89.21 2.79 89.37 4.58 89.5 6.38 C89.73 9.52 90 12 91 15 C91.08 17.36 91.11 19.72 91.1 22.07 C91.1 22.76 91.09 23.44 91.09 24.15 C91.09 26.33 91.08 28.51 91.06 30.69 C91.06 32.17 91.05 33.65 91.05 35.13 C91.04 38.75 91.02 42.38 91 46 C90.34 45.67 89.68 45.34 89 45 C88.94 43.71 88.88 42.42 88.82 41.1 C88.73 39.42 88.65 37.74 88.56 36.06 C88.52 35.21 88.48 34.36 88.44 33.49 C88.4 32.68 88.36 31.87 88.32 31.04 C88.28 30.29 88.24 29.54 88.21 28.77 C88.18 26.98 88.18 26.98 87 26 C86.78 24.31 86.63 22.61 86.5 20.91 C86.42 19.88 86.34 18.85 86.25 17.79 C86.08 15.6 85.92 13.4 85.75 11.21 C85.67 10.18 85.59 9.15 85.5 8.09 C85.39 6.67 85.39 6.67 85.28 5.21 C85.23 3.03 85.23 3.03 84 2 C81.38 1.87 78.79 1.81 76.18 1.79 C74.95 1.78 74.95 1.78 73.69 1.76 C70.97 1.73 68.25 1.71 65.53 1.68 C63.65 1.66 61.76 1.64 59.88 1.62 C54.92 1.57 49.96 1.52 44.99 1.47 C39.93 1.42 34.87 1.36 29.81 1.31 C19.87 1.2 9.94 1.1 0 1 C0 0.67 0 0.34 0 0 Z " fill="#D4D4D4" transform="translate(774,413)"/>
<path d="M0 0 C3.88 2.88 3.88 2.88 5 4 C5.12 6.15 5.18 8.3 5.21 10.45 C5.22 11.12 5.23 11.79 5.24 12.49 C5.27 14.72 5.29 16.96 5.32 19.19 C5.34 20.74 5.36 22.28 5.38 23.83 C5.43 27.9 5.48 31.98 5.53 36.05 C5.58 40.21 5.64 44.37 5.69 48.52 C5.8 56.68 5.9 64.84 6 73 C5.9 72.36 5.79 71.72 5.69 71.06 C5.46 70.38 5.23 69.7 5 69 C4.01 68.67 3.02 68.34 2 68 C1.98 66.9 1.98 66.9 1.97 65.78 C1.87 58.83 1.77 51.89 1.66 44.95 C1.61 41.38 1.55 37.81 1.5 34.24 C1.45 30.79 1.4 27.34 1.35 23.89 C1.32 21.94 1.29 20 1.27 18.05 C1.16 11.96 0.93 6.03 0 0 Z " fill="#ACADAE" transform="translate(502,748)"/>
<path d="M0 0 C0.33 0 0.66 0 1 0 C1 28.05 1 56.1 1 85 C-0.49 85.5 -0.49 85.5 -2 86 C-2 58.28 -2 30.56 -2 2 C-1.34 2 -0.68 2 0 2 C0 1.34 0 0.68 0 0 Z " fill="#97989A" transform="translate(743,777)"/>
<path d="M0 0 C4.66 6.98 2.62 16.62 3 25 C51.51 24.67 100.02 24.34 150 24 C150 24.66 150 25.32 150 26 C130.74 26.02 111.48 26.04 92.21 26.05 C83.27 26.06 74.33 26.06 65.38 26.08 C57.59 26.09 49.8 26.09 42.01 26.09 C37.88 26.1 33.75 26.1 29.62 26.11 C25.74 26.11 21.86 26.11 17.97 26.11 C16.55 26.11 15.12 26.12 13.69 26.12 C11.75 26.12 9.8 26.12 7.86 26.12 C6.77 26.12 5.68 26.12 4.56 26.12 C2 26 2 26 0 25 C-0.63 22.71 -0.63 22.71 -1.12 19.94 C-1.29 19.02 -1.46 18.1 -1.63 17.15 C-1.75 16.44 -1.88 15.73 -2 15 C-1.67 15 -1.34 15 -1 15 C-0.67 10.05 -0.34 5.1 0 0 Z " fill="#D9D9D9" transform="translate(415,478)"/>
<path d="M0 0 C4.36 -0.1 8.72 -0.17 13.08 -0.22 C14.56 -0.24 16.05 -0.27 17.53 -0.3 C19.66 -0.35 21.79 -0.37 23.93 -0.39 C25.21 -0.41 26.49 -0.43 27.81 -0.45 C31 0 31 0 32.68 1.51 C34.55 5.05 34.35 8.36 34.25 12.26 C34.24 13.09 34.23 13.92 34.22 14.77 C34.19 17.51 34.13 20.25 34.07 22.98 C34.05 24.88 34.02 26.78 33.99 28.68 C33.92 33.68 33.83 38.68 33.74 43.68 C33.65 48.78 33.58 53.88 33.5 58.98 C33.35 68.99 33.18 78.99 33 89 C32.67 89 32.34 89 32 89 C31.99 87.96 31.98 86.93 31.97 85.86 C31.87 76.12 31.77 66.38 31.66 56.64 C31.61 51.63 31.55 46.62 31.5 41.61 C31.46 36.78 31.4 31.95 31.35 27.12 C31.33 25.27 31.31 23.43 31.29 21.58 C31.27 19 31.24 16.43 31.21 13.85 C31.2 12.69 31.2 12.69 31.19 11.52 C31.21 7.63 31.21 7.63 30 4 C15.15 3.5 15.15 3.5 0 3 C0 2.01 0 1.02 0 0 Z " fill="#B0B1B3" transform="translate(712,773)"/>
<path d="M0 0 C7.21 -0.1 14.42 -0.17 21.62 -0.22 C24.08 -0.24 26.53 -0.27 28.98 -0.3 C32.51 -0.35 36.03 -0.37 39.55 -0.39 C41.2 -0.42 41.2 -0.42 42.88 -0.45 C43.91 -0.45 44.93 -0.45 45.98 -0.45 C47.33 -0.47 47.33 -0.47 48.7 -0.48 C51 0 51 0 52.79 1.72 C54.19 4.36 54.39 6.03 54.42 9.01 C54.43 10.01 54.45 11 54.47 12.03 C54.47 13.09 54.47 14.16 54.48 15.26 C54.49 16.36 54.51 17.46 54.52 18.59 C54.57 22.1 54.6 25.61 54.62 29.12 C54.66 32.64 54.7 36.16 54.75 39.68 C54.77 41.87 54.8 44.06 54.81 46.25 C54.82 47.24 54.83 48.23 54.84 49.25 C54.85 50.12 54.86 50.99 54.86 51.89 C54.87 54.06 54.87 54.06 56 56 C58.53 56.66 58.53 56.66 61 57 C61 57.66 61 58.32 61 59 C58.69 59 56.38 59 54 59 C52.21 55.92 51.74 53.66 51.71 50.11 C51.7 49.14 51.69 48.18 51.67 47.18 C51.67 46.14 51.66 45.1 51.66 44.03 C51.64 42.96 51.63 41.89 51.61 40.78 C51.55 36.19 51.51 31.61 51.47 27.02 C51.43 23.67 51.39 20.32 51.34 16.97 C51.34 15.93 51.33 14.89 51.33 13.82 C51.31 12.85 51.3 11.89 51.29 10.89 C51.28 10.04 51.27 9.19 51.27 8.31 C51.09 5.61 51.09 5.61 49 2 C24.75 1.5 24.75 1.5 0 1 C0 0.67 0 0.34 0 0 Z " fill="#D2D2D3" transform="translate(812,834)"/>
<path d="M0 0 C0.66 0.33 1.32 0.66 2 1 C3.22 18.62 3.12 36.24 3.07 53.9 C3.06 57.87 3.05 61.83 3.05 65.8 C3.04 73.54 3.02 81.27 3 89 C0.27 86.27 0.73 84.75 0.7 80.92 C0.68 79.64 0.66 78.36 0.65 77.05 C0.64 75.64 0.63 74.23 0.62 72.82 C0.6 71.36 0.59 69.91 0.57 68.46 C0.52 64.61 0.49 60.76 0.46 56.91 C0.41 50.83 0.34 44.74 0.27 38.65 C0.25 37.18 0.24 35.71 0.22 34.24 C0.12 24.84 -0.09 15.46 -0.75 6.08 C-0.87 4.39 -0.94 2.7 -1 1 C-0.67 0.67 -0.34 0.34 0 0 Z " fill="#A9AAAC" transform="translate(861,439)"/>
<path d="M0 0 C38.94 0 77.88 0 118 0 C118 6.6 118 13.2 118 20 C118.5 21.49 118.5 21.49 119 23 C118.34 23 117.68 23 117 23 C117 23.66 117 24.32 117 25 C116.34 24.67 115.68 24.34 115 24 C115.5 22.51 115.5 22.51 116 21 C115.34 20.67 114.68 20.34 114 20 C114.5 19.5 114.5 19.5 115 19 C115 13.39 115 7.78 115 2 C77.05 1.67 39.1 1.34 0 1 C0 0.67 0 0.34 0 0 Z " fill="#CECECE" transform="translate(388,413)"/>
<path d="M0 0 C1.31 -0 1.31 -0 2.65 -0.01 C4.07 0.01 4.07 0.01 5.51 0.03 C6.97 0.03 6.97 0.03 8.47 0.03 C10.53 0.04 12.6 0.05 14.67 0.08 C17.81 0.11 20.96 0.12 24.1 0.12 C26.11 0.13 28.12 0.14 30.14 0.15 C31.54 0.16 31.54 0.16 32.97 0.17 C38.28 0.22 43.4 0.59 48.66 1.36 C48.66 2.02 48.66 2.68 48.66 3.36 C30.84 3.36 13.02 3.36 -5.34 3.36 C-5.34 11.94 -5.34 20.52 -5.34 29.36 C-8.44 26.26 -7.64 23.02 -7.67 18.8 C-7.66 17.68 -7.66 16.57 -7.66 15.42 C-7.67 14.31 -7.69 13.2 -7.71 12.05 C-7.71 10.99 -7.71 9.93 -7.71 8.83 C-7.71 7.85 -7.71 6.88 -7.72 5.87 C-7.02 1.18 -4.48 -0.02 0 0 Z " fill="#E3E3E3" transform="translate(571.344482421875,862.6435546875)"/>
<path d="M0 0 C-0.33 0.99 -0.66 1.98 -1 3 C-50.5 3 -100 3 -151 3 C-151 2.67 -151 2.34 -151 2 C-103.81 2 -56.62 2 -8 2 C-8 1.34 -8 0.68 -8 0 C-4.71 -1.1 -3.29 -0.8 0 0 Z " fill="#D8D8D8" transform="translate(746,501)"/>
<path d="M0 0 C0.99 0 1.98 0 3 0 C3.03 6.5 3.04 12.99 3.05 19.49 C3.06 21.7 3.07 23.91 3.08 26.12 C3.09 29.3 3.09 32.47 3.1 35.64 C3.1 36.64 3.11 37.63 3.11 38.65 C3.11 39.57 3.11 40.49 3.11 41.44 C3.12 42.25 3.12 43.06 3.12 43.89 C3 46 3 46 2 49 C2.28 51.34 2.61 53.68 3 56 C2.01 56.5 2.01 56.5 1 57 C0.2 53.49 -0.12 50.26 -0.11 46.66 C-0.11 45.62 -0.11 44.58 -0.11 43.51 C-0.11 42.39 -0.1 41.28 -0.1 40.14 C-0.1 38.99 -0.09 37.84 -0.09 36.66 C-0.09 33 -0.08 29.35 -0.06 25.69 C-0.06 23.21 -0.05 20.72 -0.05 18.24 C-0.04 12.16 -0.02 6.08 0 0 Z " fill="#A7A8AA" transform="translate(533,778)"/>
<path d="M0 0 C0.99 0.5 0.99 0.5 2 1 C2.33 25.42 2.66 49.84 3 75 C2.01 75.5 2.01 75.5 1 76 C0.23 71.24 -0.12 66.69 -0.11 61.87 C-0.11 61.2 -0.11 60.52 -0.11 59.83 C-0.11 57.63 -0.11 55.42 -0.1 53.22 C-0.1 51.69 -0.09 50.15 -0.09 48.61 C-0.09 44.59 -0.08 40.56 -0.07 36.53 C-0.06 32.42 -0.05 28.3 -0.05 24.19 C-0.04 16.12 -0.02 8.06 0 0 Z " fill="#323233" transform="translate(383,456)"/>
<path d="M0 0 C0.83 0 1.67 0 2.52 0.01 C3.46 0.01 4.41 0.01 5.37 0.01 C6.4 0.01 7.42 0.02 8.47 0.02 C9.52 0.02 10.56 0.03 11.63 0.03 C14.97 0.03 18.32 0.05 21.66 0.06 C23.92 0.06 26.18 0.07 28.44 0.07 C33.99 0.08 39.54 0.1 45.1 0.12 C44.77 0.78 44.44 1.44 44.1 2.12 C38.6 3.05 33.11 3.34 27.54 3.54 C26.76 3.57 25.98 3.6 25.18 3.63 C23.54 3.68 21.91 3.74 20.28 3.79 C18.6 3.84 16.93 3.91 15.26 3.97 C12.84 4.07 10.41 4.15 7.98 4.23 C7.24 4.26 6.49 4.3 5.72 4.33 C0.54 4.46 0.54 4.46 -1.9 2.61 C-2.23 2.12 -2.56 1.63 -2.9 1.12 C-1.9 0.12 -1.9 0.12 0 0 Z " fill="#A6A7A8" transform="translate(566.9045562744141,891.8797454833984)"/>
<path d="M0 0 C1.06 3.18 1.11 5.43 1.1 8.76 C1.1 9.77 1.09 10.78 1.09 11.82 C1.08 13.73 1.08 13.73 1.06 15.69 C1.04 19.75 1.02 23.81 1 28 C22.78 28.5 22.78 28.5 45 29 C45 29.66 45 30.32 45 31 C38.77 31.03 32.54 31.04 26.31 31.05 C24.19 31.06 22.07 31.07 19.95 31.08 C16.91 31.09 13.86 31.09 10.82 31.1 C9.87 31.1 8.92 31.11 7.94 31.11 C7.05 31.11 6.17 31.11 5.27 31.11 C4.1 31.12 4.1 31.12 2.91 31.12 C1 31 1 31 -1 30 C-1.02 26.05 -1.04 22.1 -1.05 18.15 C-1.06 16.14 -1.08 14.13 -1.09 12.13 C-1.09 10.87 -1.09 9.62 -1.1 8.32 C-1.1 7.16 -1.11 6 -1.11 4.8 C-1 2 -1 2 0 0 Z " fill="#DADADA" transform="translate(773,775)"/>
<path d="M0 0 C0.33 0 0.66 0 1 0 C1 32.34 1 64.68 1 98 C1.66 98 2.32 98 3 98 C3 104.6 3 111.2 3 118 C2.67 118 2.34 118 2 118 C1.94 117 1.88 116 1.82 114.97 C1.73 113.68 1.65 112.39 1.56 111.06 C1.48 109.77 1.4 108.49 1.32 107.16 C1.35 104.14 1.35 104.14 0 103 C-0.1 101.66 -0.12 100.31 -0.12 98.97 C-0.12 98.1 -0.12 97.23 -0.12 96.34 C-0.12 95.38 -0.12 94.42 -0.11 93.43 C-0.11 92.43 -0.11 91.42 -0.11 90.39 C-0.11 87.05 -0.11 83.71 -0.1 80.37 C-0.1 78.06 -0.09 75.76 -0.09 73.45 C-0.09 67.36 -0.08 61.27 -0.07 55.18 C-0.06 48.98 -0.05 42.77 -0.05 36.56 C-0.04 24.38 -0.02 12.19 0 0 Z " fill="#212121" transform="translate(383,698)"/>
<path d="M0 0 C1.98 0 3.96 0 6 0 C7.24 3.72 7.11 7.15 7.07 11.02 C7.06 11.84 7.06 12.65 7.05 13.49 C7.04 16.2 7.01 18.9 6.98 21.6 C6.97 23.47 6.95 25.35 6.93 27.22 C6.9 31.15 6.86 35.08 6.81 39.01 C6.76 44.05 6.72 49.09 6.69 54.13 C6.66 58 6.62 61.87 6.58 65.74 C6.56 67.6 6.54 69.46 6.53 71.32 C6.52 73.92 6.49 76.51 6.45 79.11 C6.45 79.88 6.45 80.66 6.45 81.45 C6.41 83.59 6.41 83.59 6 87 C1.82 89.79 -0.15 88.8 -5 88 C-5 87.67 -5 87.34 -5 87 C-2.03 87 0.94 87 4 87 C4 59.61 4 32.22 4 4 C2.35 3.67 0.7 3.34 -1 3 C-0.67 2.01 -0.34 1.02 0 0 Z " fill="#444546" transform="translate(617,776)"/>
<path d="M0 0 C0.33 0 0.66 0 1 0 C2.02 10.05 2.38 20.11 2.67 30.2 C2.72 32.08 2.79 33.96 2.85 35.84 C2.95 38.58 3.03 41.32 3.11 44.06 C3.14 44.9 3.18 45.74 3.21 46.6 C3.29 50.14 3.33 52.37 1.66 55.54 C0 57 0 57 -2.69 57.25 C-3.45 57.17 -4.21 57.09 -5 57 C-5.33 56.34 -5.66 55.68 -6 55 C-4.35 54.34 -2.7 53.68 -1 53 C-0.67 35.51 -0.34 18.02 0 0 Z " fill="#BEBEBF" transform="translate(772,837)"/>
<path d="M0 0 C1.52 0.12 3.04 0.2 4.56 0.25 C5.44 0.28 6.32 0.31 7.23 0.35 C9.08 0.41 10.92 0.46 12.77 0.52 C13.65 0.55 14.53 0.59 15.44 0.62 C16.24 0.65 17.04 0.67 17.87 0.7 C20 1 20 1 23 3 C22.67 3.99 22.34 4.98 22 6 C21.5 5.01 21.5 5.01 21 4 C10.77 4 0.54 4 -10 4 C-10 3.01 -10 2.02 -10 1 C-3.38 -1.12 -3.38 -1.12 0 0 Z " fill="#A9AAAC" transform="translate(602,772)"/>
<path d="M0 0 C0.66 0.33 1.32 0.66 2 1 C3.59 1.09 5.19 1.11 6.79 1.1 C7.79 1.09 8.79 1.09 9.82 1.09 C10.91 1.08 12 1.07 13.13 1.06 C14.27 1.06 15.4 1.05 16.57 1.05 C21.43 1.03 26.29 1.01 31.15 0.98 C47.8 0.89 64.37 1.17 81 2 C81 2.33 81 2.66 81 3 C54.27 3.33 27.54 3.66 0 4 C-0.33 4.66 -0.66 5.32 -1 6 C-1.62 4.12 -1.62 4.12 -2 2 C-1.34 1.34 -0.68 0.68 0 0 Z " fill="#686868" transform="translate(656,774)"/>
<path d="M0 0 C0.33 0 0.66 0 1 0 C1.33 24.42 1.66 48.84 2 74 C3.32 74.66 4.64 75.32 6 76 C3.66 75.74 1.32 75.41 -1 75 C-2.38 72.24 -1.88 70.34 -1.58 67.27 C-0.96 60.05 -0.78 52.86 -0.68 45.61 C-0.66 44.29 -0.64 42.98 -0.62 41.63 C-0.57 38.18 -0.52 34.74 -0.47 31.29 C-0.42 27.76 -0.36 24.23 -0.31 20.69 C-0.2 13.8 -0.1 6.9 0 0 Z " fill="#BABBBD" transform="translate(387,457)"/>
<path d="M0 0 C3.98 -0.03 7.96 -0.05 11.94 -0.06 C13.07 -0.07 14.21 -0.08 15.38 -0.09 C16.46 -0.09 17.54 -0.09 18.65 -0.1 C20.15 -0.11 20.15 -0.11 21.68 -0.11 C24 0 24 0 25 1 C25.09 2.93 25.11 4.86 25.1 6.79 C25.09 7.95 25.09 9.12 25.09 10.33 C25.08 11.56 25.07 12.79 25.06 14.06 C25.06 15.3 25.05 16.53 25.05 17.81 C25.04 20.87 25.02 23.94 25 27 C24.67 27 24.34 27 24 27 C23.5 15.62 23.5 15.62 23 4 C15.08 3.67 7.16 3.34 -1 3 C-0.67 2.01 -0.34 1.02 0 0 Z " fill="#2A2A2A" transform="translate(836,776)"/>
<path d="M0 0 C2.99 0.16 5.96 0.26 8.95 0.32 C10.27 0.35 10.27 0.35 11.63 0.38 C14.46 0.44 17.29 0.5 20.12 0.56 C22.04 0.61 23.96 0.65 25.88 0.69 C30.59 0.8 35.29 0.9 40 1 C39.67 1.66 39.34 2.32 39 3 C32.77 3.08 26.54 3.13 20.31 3.16 C18.19 3.18 16.07 3.2 13.95 3.23 C10.91 3.26 7.86 3.28 4.82 3.29 C3.87 3.31 2.92 3.32 1.94 3.34 C0.61 3.34 0.61 3.34 -0.73 3.34 C-1.51 3.35 -2.29 3.35 -3.09 3.36 C-4.03 3.18 -4.03 3.18 -5 3 C-5.66 2.01 -6.32 1.02 -7 0 C-2.25 -1.12 -2.25 -1.12 0 0 Z " fill="#A9AAAC" transform="translate(663,773)"/>
<path d="M0 0 C0.99 0.33 1.98 0.66 3 1 C3 15.19 3 29.38 3 44 C2.34 44 1.68 44 1 44 C0.67 29.48 0.34 14.96 0 0 Z " fill="#161616" transform="translate(773,842)"/>
<path d="M0 0 C3 1 3 1 4 3 C4.99 3.66 5.98 4.32 7 5 C2.28 5.93 -2.33 6.18 -7.12 6.19 C-7.83 6.2 -8.53 6.21 -9.25 6.22 C-13 6.24 -15.82 6.08 -19 4 C-18.34 4 -17.68 4 -17 4 C-17 3.34 -17 2.68 -17 2 C-11.62 1.32 -6.43 1 -1 1 C-0.67 0.67 -0.34 0.34 0 0 Z " fill="#929394" transform="translate(466,890)"/>
<path d="M0 0 C0.33 0 0.66 0 1 0 C1.01 0.75 1.02 1.5 1.03 2.27 C1.13 9.32 1.23 16.37 1.34 23.42 C1.39 27.04 1.45 30.67 1.5 34.29 C1.54 37.78 1.6 41.28 1.65 44.77 C1.68 46.76 1.71 48.75 1.73 50.74 C1.75 51.94 1.77 53.14 1.79 54.38 C1.82 55.97 1.82 55.97 1.84 57.6 C1.73 59.95 1.73 59.95 3 61 C3.04 62.67 3.04 64.33 3 66 C1.02 66.99 1.02 66.99 -1 68 C-2.12 64.25 -2.12 64.25 -1 62 C-0.88 60.03 -0.82 58.06 -0.79 56.08 C-0.77 54.84 -0.75 53.6 -0.73 52.32 C-0.72 50.96 -0.7 49.6 -0.68 48.24 C-0.66 46.85 -0.64 45.47 -0.62 44.08 C-0.57 40.43 -0.52 36.77 -0.47 33.12 C-0.42 29.39 -0.36 25.67 -0.31 21.94 C-0.2 14.63 -0.1 7.31 0 0 Z " fill="#434445" transform="translate(503,756)"/>
<path d="M0 0 C0.99 0.33 1.98 0.66 3 1 C2.86 3.98 2.71 6.96 2.56 9.94 C2.5 11.18 2.5 11.18 2.44 12.46 C2.16 18 1.66 23.48 1 29 C0.34 28.67 -0.32 28.34 -1 28 C-2.47 19.14 -2.27 9.87 -1 1 C-0.67 0.67 -0.34 0.34 0 0 Z " fill="#B9BABB" transform="translate(386,383)"/>
<path d="M0 0 C0 9.57 0 19.14 0 29 C-0.99 28.67 -1.98 28.34 -3 28 C-3 19.09 -3 10.18 -3 1 C-1 0 -1 0 0 0 Z " fill="#2A2B2B" transform="translate(539,438)"/>
<path d="M0 0 C0.66 0.33 1.32 0.66 2 1 C2.33 19.48 2.66 37.96 3 57 C2.01 56.67 1.02 56.34 0 56 C-0.38 53.67 -0.71 51.34 -1 49 C-0.5 48.5 -0.5 48.5 0 48 C0.12 46.56 0.18 45.11 0.21 43.66 C0.23 42.74 0.25 41.82 0.27 40.87 C0.28 39.87 0.3 38.87 0.32 37.84 C0.34 36.82 0.36 35.8 0.38 34.75 C0.44 31.48 0.5 28.21 0.56 24.94 C0.61 22.73 0.65 20.51 0.69 18.3 C0.8 12.87 0.9 7.43 1 2 C0.34 1.67 -0.32 1.34 -1 1 C-0.67 0.67 -0.34 0.34 0 0 Z " fill="#6E6E6E" transform="translate(535,776)"/>
<path d="M0 0 C0.66 0 1.32 0 2 0 C2 18.15 2 36.3 2 55 C3.65 55.33 5.3 55.66 7 56 C7 56.66 7 57.32 7 58 C1.12 57.12 1.12 57.12 0 56 C-0.09 54.25 -0.12 52.5 -0.11 50.75 C-0.11 49.62 -0.11 48.5 -0.11 47.35 C-0.11 46.13 -0.1 44.91 -0.1 43.65 C-0.1 42.41 -0.09 41.17 -0.09 39.89 C-0.09 36.58 -0.08 33.28 -0.07 29.97 C-0.06 26.6 -0.05 23.23 -0.05 19.86 C-0.04 13.24 -0.02 6.62 0 0 Z " fill="#212222" transform="translate(860,839)"/>
<path d="M0 0 C0 0.99 0 1.98 0 3 C-1.18 2.98 -2.36 2.97 -3.58 2.95 C-7.97 2.9 -12.37 2.86 -16.76 2.84 C-18.66 2.82 -20.56 2.8 -22.46 2.77 C-25.19 2.74 -27.93 2.72 -30.66 2.71 C-31.51 2.69 -32.35 2.68 -33.22 2.66 C-38.26 2.66 -41.59 3.29 -46 6 C-45.34 4.35 -44.68 2.7 -44 1 C-38.06 0.86 -32.11 0.71 -26.17 0.57 C-24.14 0.52 -22.12 0.48 -20.1 0.43 C-17.19 0.36 -14.29 0.29 -11.38 0.22 C-10.47 0.2 -9.57 0.18 -8.63 0.15 C-7.79 0.13 -6.95 0.11 -6.08 0.09 C-4.97 0.07 -4.97 0.07 -3.83 0.04 C-2.56 0.01 -1.28 0 0 0 Z " fill="#D9D9D9" transform="translate(434,624)"/>
<path d="M0 0 C0.33 0.66 0.66 1.32 1 2 C2.65 2 4.3 2 6 2 C6.33 2.99 6.66 3.98 7 5 C5.02 5 3.04 5 1 5 C1 10.94 1 16.88 1 23 C0.67 23 0.34 23 0 23 C0 19.37 0 15.74 0 12 C-0.66 12 -1.32 12 -2 12 C-2.29 3.43 -2.29 3.43 0 0 Z " fill="#2B2B2C" transform="translate(775,774)"/>
<path d="M0 0 C2.16 3.24 2.28 4.34 2.41 8.11 C2.45 9.09 2.49 10.07 2.53 11.08 C2.56 12.11 2.59 13.13 2.62 14.19 C2.66 15.22 2.7 16.26 2.74 17.33 C2.84 19.88 2.92 22.44 3 25 C2.01 25 1.02 25 0 25 C-0.66 21.7 -1.32 18.4 -2 15 C-1.67 15 -1.34 15 -1 15 C-0.67 10.05 -0.34 5.1 0 0 Z " fill="#AAABAD" transform="translate(415,478)"/>
<path d="M0 0 C0.66 0 1.32 0 2 0 C2 7.92 2 15.84 2 24 C1.67 22.68 1.34 21.36 1 20 C0.34 20 -0.32 20 -1 20 C-0.67 13.4 -0.34 6.8 0 0 Z " fill="#1D1D1D" transform="translate(774,508)"/>
<path d="M0 0 C0 1.65 0 3.3 0 5 C-0.66 4.67 -1.32 4.34 -2 4 C-3.96 3.85 -5.92 3.75 -7.88 3.68 C-9.05 3.64 -10.22 3.6 -11.42 3.56 C-12.64 3.52 -13.86 3.48 -15.12 3.44 C-16.36 3.39 -17.59 3.35 -18.86 3.31 C-21.9 3.2 -24.95 3.1 -28 3 C-28 2.67 -28 2.34 -28 2 C-23.52 1.67 -19.04 1.33 -14.56 1 C-13.28 0.9 -12 0.81 -10.69 0.71 C-9.47 0.62 -8.26 0.53 -7 0.44 C-5.32 0.31 -5.32 0.31 -3.59 0.18 C-1 0 -1 0 0 0 Z " fill="#C4C5C6" transform="translate(684,452)"/>
<path d="M0 0 C5.28 0 10.56 0 16 0 C16.33 0.99 16.66 1.98 17 3 C11.06 3 5.12 3 -1 3 C-0.67 2.01 -0.34 1.02 0 0 Z " fill="#292A2A" transform="translate(873,895)"/>
<path d="M0 0 C0.33 7.26 0.66 14.52 1 22 C0.01 21.67 -0.98 21.34 -2 21 C-2.33 14.4 -2.66 7.8 -3 1 C-1 0 -1 0 0 0 Z " fill="#E4E4E4" transform="translate(389,815)"/>
<path d="M0 0 C0.33 0 0.66 0 1 0 C1 6.27 1 12.54 1 19 C0.01 18.67 -0.98 18.34 -2 18 C-2.21 11.59 -2.16 6.07 0 0 Z " fill="#D7D7D7" transform="translate(414,475)"/>
<path d="M0 0 C1.32 0 2.64 0 4 0 C3.67 6.27 3.34 12.54 3 19 C2.34 19 1.68 19 1 19 C1.01 17.8 1.02 16.59 1.04 15.35 C1.04 13.78 1.05 12.2 1.06 10.62 C1.07 9.83 1.08 9.04 1.09 8.22 C1.23 3.98 1.23 3.98 0 0 Z " fill="#D7D8D8" transform="translate(944,341)"/>
<path d="M0 0 C0.66 0 1.32 0 2 0 C2 6.6 2 13.2 2 20 C1.01 20 0.02 20 -1 20 C-0.67 13.4 -0.34 6.8 0 0 Z " fill="#D9D9D9" transform="translate(506,414)"/>
<path d="M0 0 C0.66 0.33 1.32 0.66 2 1 C2 7.27 2 13.54 2 20 C1.34 20 0.68 20 0 20 C-0.2 16.85 -0.38 13.71 -0.56 10.56 C-0.62 9.66 -0.67 8.77 -0.73 7.84 C-0.78 6.99 -0.83 6.13 -0.88 5.25 C-0.93 4.46 -0.97 3.67 -1.02 2.86 C-1 1 -1 1 0 0 Z " fill="#A3A4A6" transform="translate(861,439)"/>
<path d="M0 0 C3 1 3 1 4 3 C4.99 3.66 5.98 4.32 7 5 C1.06 4.67 -4.88 4.34 -11 4 C-10.67 3.01 -10.34 2.02 -10 1 C-9.36 1.01 -8.72 1.02 -8.07 1.04 C-7.24 1.04 -6.41 1.05 -5.56 1.06 C-4.33 1.08 -4.33 1.08 -3.07 1.1 C-1.01 1.23 -1.01 1.23 0 0 Z " fill="#B4B5B7" transform="translate(466,890)"/>
<path d="M0 0 C1 0.05 2.01 0.1 3.04 0.16 C5.49 0.29 7.93 0.42 10.38 0.56 C10.38 0.89 10.38 1.22 10.38 1.56 C9.45 1.59 8.52 1.61 7.56 1.64 C4.12 1.73 0.68 1.83 -2.76 1.93 C-4.25 1.98 -5.74 2.02 -7.23 2.06 C-9.37 2.12 -11.51 2.18 -13.65 2.25 C-14.94 2.28 -16.22 2.32 -17.55 2.36 C-20.54 2.36 -20.54 2.36 -22.62 3.56 C-22.3 2.57 -21.96 1.58 -21.62 0.56 C-14.33 -0.4 -7.34 -0.43 0 0 Z " fill="#B3B4B6" transform="translate(437.625,652.4375)"/>
<path d="M0 0 C0.66 0.33 1.32 0.66 2 1 C2 9.25 2 17.5 2 26 C1.67 26 1.34 26 1 26 C1 19.4 1 12.8 1 6 C0.34 6 -0.32 6 -1 6 C-1.04 4.33 -1.04 2.67 -1 1 C-0.67 0.67 -0.34 0.34 0 0 Z " fill="#707070" transform="translate(385,790)"/>
<path d="M0 0 C0.66 0 1.32 0 2 0 C2 4.29 2 8.58 2 13 C1.01 12.67 0.02 12.34 -1 12 C-1.92 7.28 -2.23 4.33 0 0 Z " fill="#404142" transform="translate(536,820)"/>
<path d="M0 0 C1.08 0.25 1.08 0.25 2.19 0.5 C4.86 0.98 7.29 1.08 10 1 C10 2.32 10 3.64 10 5 C9.01 5.33 8.02 5.66 7 6 C5.18 5.04 5.18 5.04 3.31 3.62 C2.69 3.16 2.07 2.7 1.43 2.23 C0.96 1.82 0.48 1.42 0 1 C0 0.67 0 0.34 0 0 Z " fill="#4F5051" transform="translate(453,859)"/>
<path d="M0 0 C0.99 0 1.98 0 3 0 C3 6.6 3 13.2 3 20 C2.67 20 2.34 20 2 20 C1.94 19 1.88 18 1.82 16.97 C1.73 15.68 1.65 14.39 1.56 13.06 C1.48 11.77 1.4 10.49 1.32 9.16 C1.35 6.14 1.35 6.14 0 5 C-0.04 3.33 -0.04 1.67 0 0 Z " fill="#454647" transform="translate(383,796)"/>
<path d="M0 0 C0.66 0 1.32 0 2 0 C2 4.62 2 9.24 2 14 C1.01 14.5 1.01 14.5 0 15 C-0.19 12.69 -0.38 10.38 -0.56 8.06 C-0.72 6.13 -0.72 6.13 -0.88 4.16 C-0.92 3.12 -0.96 2.07 -1 1 C-0.67 0.67 -0.34 0.34 0 0 Z " fill="#363637" transform="translate(384,517)"/>
<path d="M0 0 C1.32 0 2.64 0 4 0 C4 3.96 4 7.92 4 12 C3.34 12 2.68 12 2 12 C1.94 11.3 1.88 10.6 1.82 9.88 C1.73 8.97 1.65 8.06 1.56 7.12 C1.48 6.22 1.4 5.32 1.32 4.38 C1.13 1.99 1.13 1.99 0 0 Z " fill="#B3B4B5" transform="translate(858,414)"/>
<path d="M0 0 C0.66 0.33 1.32 0.66 2 1 C2 2.65 2 4.3 2 6 C0.02 6.99 0.02 6.99 -2 8 C-2.69 6.25 -2.69 6.25 -3 4 C-1.56 1.75 -1.56 1.75 0 0 Z " fill="#5F6060" transform="translate(504,816)"/>
</svg>
